<?xml version="1.0" encoding="UTF-8"?>
<svg width="171px" height="94px" viewBox="0 0 171 94" version="1.1" xmlns="http://www.w3.org/2000/svg" xmlns:xlink="http://www.w3.org/1999/xlink">
    <!-- Generator: Sketch 48.2 (47327) - http://www.bohemiancoding.com/sketch -->
    <title>avion</title>
    <desc>Created with Sketch.</desc>
    <defs></defs>
    <g id="Symbols" stroke="none" stroke-width="1" fill="none" fill-rule="evenodd">
        <g id="avion" fill="#2E86AB">
            <g id="Page-1">
                <path d="M130.9235,24.0718 C131.3765,25.2848 131.6765,26.0898 132.0275,27.0278 C133.1285,25.4038 133.1285,25.4038 130.9235,24.0718 M129.9865,28.4748 C129.4385,26.1108 129.4385,26.1108 128.4655,25.3628 C128.2075,27.7618 128.2075,27.7618 129.9865,28.4748 M160.4785,50.6848 C153.0985,45.6698 144.5075,43.3448 136.5715,39.5758 C143.3395,45.8928 151.5385,49.1048 160.4785,50.6848 M42.7215,31.1658 C39.1445,29.1108 36.0835,27.2068 32.8915,25.5558 C28.7995,23.4388 24.5715,21.5858 20.4575,19.5108 C15.3845,16.9528 10.3735,14.2748 5.3225,11.6738 C4.4985,11.2488 3.6535,10.8068 2.6205,10.8678 C3.1345,11.5088 3.6925,12.0738 4.3585,12.4468 C7.5655,14.2408 10.8385,15.9168 13.7505,18.2038 C14.5835,18.8588 15.5665,19.3318 16.5055,19.8428 C21.3165,22.4588 26.1325,25.0638 30.9505,27.6638 C32.5375,28.5198 34.1405,29.3458 35.7325,30.1918 C36.6125,30.6588 37.5345,31.0698 38.3475,31.6348 C39.0225,32.1048 39.6295,32.2608 40.3935,31.9478 C41.0025,31.6978 41.6435,31.5228 42.7215,31.1658 M40.4865,34.1318 C39.2355,34.6218 38.2685,35.0008 37.1805,35.4278 C37.6205,36.4088 38.0745,37.2168 38.3545,38.0818 C39.4225,41.3808 40.5005,44.6788 41.4485,48.0128 C42.3525,51.1918 42.5745,54.4398 41.9035,57.7098 C41.7305,58.5598 41.5335,59.4058 41.3255,60.2488 C40.8495,62.1768 40.3605,64.1008 39.8255,66.2238 C40.9375,66.4618 41.9275,66.6728 43.1675,66.9378 C43.8305,64.3588 44.6105,62.0768 44.9745,59.7298 C45.5075,56.2958 45.7455,52.7948 44.9535,49.3638 C44.1895,46.0478 43.2555,42.7678 42.3185,39.4938 C41.8255,37.7758 41.1665,36.1038 40.4865,34.1318 M134.8015,32.5358 C136.6915,30.1458 138.3235,27.9578 140.0845,25.8788 C144.5845,20.5618 148.5565,14.9018 151.8885,8.7688 C153.1325,6.4768 154.1155,3.8528 156.8985,2.6738 C155.0605,1.9158 154.3425,2.0598 153.0085,3.6548 C149.6255,7.7018 146.1925,11.7138 142.9605,15.8808 C139.9385,19.7788 137.1275,23.8428 134.2785,27.8728 C133.7215,28.6628 133.4185,29.6328 132.9995,30.5158 C133.6535,31.2488 134.1695,31.8268 134.8015,32.5358 M137.4755,37.1538 C137.4435,37.3218 137.4095,37.4888 137.3775,37.6568 C139.2965,38.5598 141.1765,39.5598 143.1405,40.3498 C149.7755,43.0198 156.4365,45.6198 162.6745,49.1658 C163.6685,49.7318 164.7575,49.9438 166.2325,49.8108 C166.0115,49.1168 165.9525,48.5228 165.6545,48.0968 C165.1985,47.4468 164.5955,46.8928 164.0235,46.3308 C160.6845,43.0488 157.1035,40.0538 153.4245,37.1558 C152.0195,36.0498 150.7345,35.4968 148.9335,35.6328 C145.0745,35.9218 141.2785,36.5418 137.4755,37.1538 M157.2165,4.9358 C156.5735,5.6688 156.1845,6.0008 155.9345,6.4168 C154.3525,9.0538 152.8755,11.7568 151.2235,14.3488 C148.3145,18.9158 145.1085,23.2638 141.5715,27.3808 C139.3435,29.9738 137.3605,32.7778 135.1255,35.6708 C135.9845,35.4558 136.6055,35.2248 137.2455,35.1528 C141.2855,34.6988 145.2675,33.6968 149.3945,34.0228 C151.3155,34.1748 151.6835,33.7838 152.2135,31.9298 C153.5015,27.4288 154.3825,22.8488 155.0485,18.2138 C155.6175,14.2478 156.3825,10.3098 157.0565,6.3588 C157.1085,6.0538 157.1265,5.7448 157.2165,4.9358 M156.5315,91.1368 C156.2135,90.4958 156.1875,90.3248 156.0955,90.2738 C151.4925,87.6978 146.8905,85.1248 142.2765,82.5728 C140.9905,81.8618 139.6965,81.1538 138.3595,80.5538 C134.0975,78.6458 129.7765,76.8688 125.5465,74.8958 C118.4675,71.5948 111.4515,68.1578 104.3845,64.8308 C102.2715,63.8358 100.0695,63.0318 97.9195,62.1118 C95.4675,61.0608 92.9835,60.0708 90.5935,58.8888 C86.3485,56.7898 82.1775,54.5388 77.9445,52.4128 C76.6455,51.7598 75.2575,51.2748 73.8885,50.7698 C72.0715,50.0998 70.2505,49.4338 68.4025,48.8648 C66.8675,48.3928 66.2905,48.9518 66.4295,50.5618 C66.5305,51.7498 67.2035,52.5808 68.1675,53.1118 C72.0265,55.2388 75.8215,57.5148 79.8195,59.3458 C83.9295,61.2278 88.2665,62.6038 92.4655,64.2968 C96.4255,65.8928 100.3355,67.6098 104.2655,69.2788 C111.4025,72.3078 118.1555,76.0948 125.0135,79.6818 C127.4915,80.9778 130.0255,82.2098 132.6335,83.2088 C137.8725,85.2158 143.1595,87.1048 148.4705,88.9158 C150.9775,89.7718 153.5835,90.3358 156.5315,91.1368 M35.0955,36.1718 C32.8905,37.1158 30.9275,38.1558 28.8425,38.8058 C24.6835,40.1048 21.7025,42.8578 19.1185,46.1658 C17.0845,48.7708 17.3725,52.7528 19.6945,55.1238 C21.0005,56.4588 22.2585,57.8428 23.5885,59.1538 C24.0515,59.6108 24.6235,60.0108 25.2185,60.2708 C28.7615,61.8198 32.3165,63.3448 35.8895,64.8248 C37.5735,65.5228 37.8275,65.4008 38.3255,63.7058 C40.0225,57.9438 41.1975,52.1558 38.9735,46.2398 C38.7175,45.5578 38.6315,44.8128 38.4285,44.1088 C37.6485,41.4138 36.6035,38.8308 35.0955,36.1718 M75.0985,13.8088 C72.7045,12.9958 70.1475,13.0588 67.6495,12.7058 C63.3795,12.1008 59.9005,13.6288 56.8145,16.3198 C53.0505,19.6008 50.1925,23.6418 47.5725,27.8488 C46.6815,29.2818 47.2105,30.6188 48.8155,31.0638 C51.3885,31.7768 53.9795,32.4418 56.5895,32.9968 C60.9005,33.9128 65.2305,34.7388 69.5565,35.5738 C71.8505,36.0168 74.1675,36.1178 76.4275,36.0908 C77.4655,32.9758 76.6225,19.5048 75.0985,13.8088 M2.3285,7.6338 C7.1785,10.1198 11.8595,12.5258 16.5455,14.9188 C21.2425,17.3178 25.9705,19.6578 30.6405,22.1078 C35.2725,24.5368 39.8495,27.0708 44.7095,29.6988 C46.6135,24.2438 50.2625,20.2808 53.8875,16.1628 C53.5655,15.9618 53.3625,15.8118 53.1415,15.7018 C46.1285,12.2418 38.8995,9.3268 31.4915,6.8098 C24.4475,4.4158 17.2775,3.1338 9.8385,3.7178 C6.8445,3.9528 4.0375,4.6988 2.3285,7.6338 M79.2985,36.3408 C82.5965,36.7238 85.9665,37.1728 89.3485,37.4938 C93.8675,37.9228 98.3915,38.3818 102.9245,38.5768 C105.7835,38.6998 108.6615,38.3038 111.5325,38.2528 C115.1375,38.1888 118.7475,38.3338 122.3495,38.2008 C124.2675,38.1298 126.2315,37.8668 128.0665,37.3228 C130.2195,36.6838 132.1775,35.5408 133.5925,33.4298 C132.7205,32.7498 131.9675,32.1048 131.1585,31.5398 C127.1235,28.7188 122.5235,27.0208 118.0165,25.2088 C113.6335,23.4468 109.0895,22.0728 104.5785,20.6518 C101.2775,19.6108 97.9225,18.7298 94.5725,17.8528 C92.5725,17.3278 90.5365,16.9388 88.5145,16.5038 C86.3015,16.0268 84.0845,15.5688 81.8705,15.0978 C80.4845,14.8028 79.1485,14.1828 77.8015,14.2668 C78.3035,21.6588 78.7935,28.8938 79.2985,36.3408 M70.3985,46.7038 C70.3745,46.8078 70.3525,46.9118 70.3285,47.0148 C70.8415,47.2708 71.3405,47.5598 71.8675,47.7768 C74.5795,48.8888 77.3585,49.8578 80.0005,51.1138 C83.9175,52.9778 87.7315,55.0578 91.6065,57.0108 C93.6335,58.0318 95.6715,59.0378 97.7515,59.9458 C102.4025,61.9738 107.0865,63.9218 111.7445,65.9338 C113.5225,66.7008 115.2645,67.5528 117.0215,68.3668 C124.1685,71.6758 131.1195,75.3938 138.3825,78.4668 C141.1395,79.6338 143.7835,81.0808 146.4315,82.4888 C150.3175,84.5568 154.2155,86.6118 158.0085,88.8418 C162.1855,91.2978 162.5275,90.7208 165.9865,88.1718 C166.1465,88.0528 166.2755,87.8928 166.4145,87.7488 C168.4285,85.6778 168.4175,83.8108 166.2395,81.9418 C163.1955,79.3288 160.1505,76.7128 156.9825,74.2548 C154.4525,72.2918 151.9075,70.2318 149.0725,68.8018 C143.6485,66.0678 138.8705,62.4558 134.1915,58.6898 C131.3805,56.4268 128.5795,54.1138 125.4285,52.4088 C122.4255,50.7838 119.6035,48.9208 116.7275,47.1138 C115.8615,46.5698 114.7535,46.2398 113.7275,46.1528 C110.1975,45.8528 106.6525,45.4938 103.1195,45.5448 C97.8465,45.6218 92.5775,46.0418 87.3055,46.2908 C82.9835,46.4958 78.6795,47.1808 74.3285,46.7248 C73.0315,46.5898 71.7085,46.7038 70.3985,46.7038 M97.9075,68.7048 C97.3265,68.3828 97.1085,68.2208 96.8635,68.1308 C93.7935,66.9988 90.7065,65.9098 87.6505,64.7438 C84.9715,63.7218 82.3365,62.5878 79.6625,61.5538 C75.0285,59.7628 70.8025,57.1958 66.5855,54.6298 C65.5675,54.0098 64.3035,53.2868 64.1895,51.8378 C64.1005,50.7138 64.0895,49.5518 64.2735,48.4458 C64.6625,46.0908 65.5815,45.1038 67.9465,44.9498 C70.9385,44.7548 73.9495,44.8628 76.9525,44.8448 C77.3525,44.8428 77.7535,44.9038 78.1525,44.8848 C82.2255,44.6928 86.2975,44.4878 90.3695,44.2898 C92.4425,44.1898 94.5265,44.2118 96.5835,43.9818 C102.8795,43.2798 109.1625,43.5548 115.4185,44.2908 C117.6045,44.5488 119.7295,45.1768 121.5545,46.7838 C123.4935,48.4908 125.7405,49.8888 127.9825,51.2008 C130.1455,52.4668 132.0275,54.0338 133.8575,55.7048 C134.6945,56.4688 135.5795,57.1928 136.5155,57.8288 C136.9135,58.0998 137.5175,58.2578 137.9935,58.1968 C140.5525,57.8678 142.9805,57.1548 144.9255,55.3298 C146.2425,54.0938 147.5665,52.8628 148.8245,51.5688 C149.2475,51.1348 149.4815,50.5158 149.8415,49.9138 C149.3445,49.6948 149.1105,49.5668 148.8625,49.4868 C143.9925,47.9198 140.0305,44.8188 135.9575,41.8948 C134.5025,40.8508 133.8855,39.5308 134.1585,37.7788 C134.2265,37.3488 134.3175,36.9228 134.4575,36.1768 C131.8725,38.3278 129.0765,39.2918 126.1695,39.7628 C123.7375,40.1578 121.2375,40.1918 118.7645,40.2638 C113.9495,40.4038 109.1325,40.4758 104.3165,40.5348 C103.0495,40.5498 101.7775,40.4548 100.5145,40.3378 C96.1155,39.9298 91.7265,39.4338 87.3235,39.0758 C82.3915,38.6738 77.4125,38.6498 72.5205,37.9788 C66.6995,37.1798 60.9455,35.8858 55.1695,34.7718 C52.0205,34.1648 48.9125,33.2808 45.6635,33.3808 C44.6985,33.4098 43.7365,33.5368 42.6545,33.6298 C43.9165,38.2218 45.1315,42.5128 46.2645,46.8258 C46.6875,48.4338 47.1135,50.0808 47.2005,51.7288 C47.4655,56.7518 47.3045,61.7498 45.3365,66.5058 C45.2425,66.7328 45.2675,67.0088 45.2245,67.3628 C45.6785,67.4528 46.0505,67.5558 46.4295,67.5978 C50.0865,67.9948 53.7435,68.4108 57.4055,68.7648 C60.9985,69.1118 64.5925,69.5408 68.1945,69.6708 C74.2815,69.8918 80.3755,69.9168 86.4665,70.0028 C90.2185,70.0558 93.9445,69.8548 97.9075,68.7048 M36.6575,33.2288 C36.3935,32.9868 36.2725,32.8008 36.1025,32.7308 C31.3695,30.8008 27.2845,27.6938 22.7505,25.4048 C20.5425,24.2898 18.2705,23.2868 16.1295,22.0558 C13.7005,20.6578 11.4155,19.0118 9.0125,17.5658 C7.1805,16.4628 5.2765,15.4788 3.3795,14.4868 C1.1075,13.2978 0.3185,11.2048 0.0175,8.8848 C-0.0695,8.2188 0.1845,7.3638 0.5795,6.8048 C2.3095,4.3588 4.3985,2.4558 7.5865,1.9948 C11.7965,1.3858 15.9755,1.3838 20.1945,1.8508 C26.1735,2.5128 31.7615,4.5458 37.3955,6.4618 C42.1505,8.0788 46.8105,9.8828 51.1795,12.3988 C52.5645,13.1958 54.0785,13.7658 55.6855,14.5098 C56.2205,14.0828 56.8075,13.6628 57.3375,13.1818 C59.1885,11.5048 61.2945,10.4968 63.8385,10.4448 C68.1455,10.3568 72.4015,10.8668 76.5905,11.7488 C83.1265,13.1228 89.6345,14.6408 96.1335,16.1838 C103.4915,17.9298 110.6375,20.3898 117.7345,22.9738 C120.4875,23.9768 123.1305,25.2868 125.9755,26.5228 C126.0945,26.1288 126.2545,25.7248 126.3315,25.3058 C126.4165,24.8468 126.4045,24.3718 126.4695,23.9078 C126.8115,21.4748 128.1575,20.7398 130.4435,21.7508 C131.1145,22.0488 131.7605,22.4048 132.4155,22.7408 C133.0065,23.0448 133.5935,23.3558 134.3375,23.7438 C135.2985,22.4928 136.2255,21.2838 137.1545,20.0768 C140.2985,15.9978 143.4105,11.8938 146.6015,7.8518 C148.2585,5.7518 150.0275,3.7388 151.7995,1.7328 C153.4495,-0.1342 155.1115,-0.4162 157.3965,0.5218 C158.8875,1.1338 159.6775,2.2398 159.6135,3.7578 C159.5545,5.2088 159.1965,6.6528 158.9225,8.0898 C158.6355,9.5938 158.2355,11.0768 157.9855,12.5858 C157.2105,17.2618 156.5465,21.9568 155.7135,26.6228 C155.3165,28.8518 154.6545,31.0358 154.0725,33.2298 C153.6395,34.8678 153.6205,35.1978 154.9905,36.1118 C158.6325,38.5368 161.7975,41.5148 164.9825,44.4768 C165.6185,45.0698 166.2685,45.6518 166.8675,46.2808 C168.9275,48.4398 168.0655,51.7458 165.1785,52.5968 C162.5955,53.3588 160.0095,53.0968 157.4535,52.3538 C155.6695,51.8358 153.8805,51.3368 152.1185,50.8358 C148.8925,55.0218 145.4505,58.7048 140.1355,60.0898 C140.2365,61.0008 140.9845,61.3978 141.6005,61.8008 C143.7815,63.2258 145.9165,64.7658 148.2355,65.9288 C152.5225,68.0778 156.1995,71.0338 159.9805,73.9148 C162.8045,76.0688 165.5345,78.3028 168.1725,80.6688 C169.1445,81.5408 169.8385,82.5718 170.1625,83.8528 C170.4445,84.9648 170.3275,86.0348 169.6295,86.9138 C166.3345,91.0628 162.1525,93.7818 156.7215,93.2518 C153.5125,92.9378 150.3445,91.8328 147.2485,90.8088 C142.4345,89.2168 137.6545,87.4958 132.9415,85.6258 C129.7845,84.3738 126.7385,82.8248 123.6935,81.3098 C116.7615,77.8618 109.8595,74.3548 102.9495,70.8628 C101.8755,70.3198 100.7805,70.2808 99.6295,70.5488 C95.9705,71.3988 92.2805,72.0268 88.5055,72.0098 C81.0105,71.9768 73.5125,72.0518 66.0205,71.8738 C62.9605,71.8018 59.9165,71.1598 56.8605,70.8338 C53.4665,70.4718 50.0705,70.1058 46.6675,69.8708 C43.3535,69.6408 40.2145,68.7068 37.1325,67.6118 C32.9835,66.1378 28.7625,64.7958 24.9225,62.5688 C23.8385,61.9388 22.7775,61.2368 21.8195,60.4318 C20.6425,59.4448 19.5685,58.3318 18.4805,57.2428 C15.9835,54.7448 15.5625,51.6888 16.0065,48.3398 C16.4035,45.3468 18.1415,43.3228 20.2765,41.3698 C22.9655,38.9108 26.2125,37.5828 29.4595,36.1978 C31.7885,35.2048 34.1405,34.2648 36.6575,33.2288" id="Fill-1"></path>
                <path d="M85.0211,25.0162 C85.9571,24.6592 86.6721,24.4712 87.3031,24.1272 C88.5281,23.4612 88.8021,22.6852 88.2811,21.6982 C87.6411,20.4862 86.6001,19.9922 85.4781,20.4602 C84.9331,20.6882 84.4501,21.0712 83.9531,21.4052 C83.1221,21.9622 82.3861,22.8472 82.8521,23.7092 C83.2091,24.3692 84.3181,24.6222 85.0211,25.0162 M90.3081,22.1302 C90.4261,24.2492 89.8631,25.3982 88.4751,26.1832 C86.2801,27.4272 83.6551,27.1702 81.8181,25.4422 C80.6301,24.3262 80.4191,23.4882 80.9591,22.0382 C81.6291,20.2382 84.2531,18.1562 85.9001,18.1172 C88.4601,18.0572 90.2161,19.8782 90.3081,22.1302" id="Fill-4"></path>
                <path d="M95.5836,26.5982 C97.9466,26.5862 98.4876,25.8632 97.9056,24.1172 C97.7596,23.6762 97.6376,23.2132 97.4016,22.8222 C97.2206,22.5212 96.8336,22.0732 96.6146,22.1132 C95.9406,22.2362 94.9106,22.4032 94.7316,22.8432 C94.3596,23.7602 94.2936,24.8822 94.4186,25.8802 C94.4646,26.2452 95.4086,26.4982 95.5836,26.5982 M100.3416,24.3772 C100.2946,26.0312 100.0736,27.6732 98.3816,28.4552 C96.6386,29.2622 94.9716,28.8012 93.5436,27.6032 C92.0766,26.3722 92.0016,24.6992 92.4216,23.0182 C92.9646,20.8482 94.6536,19.5492 96.3846,19.7972 C98.5216,20.1042 100.3466,22.2172 100.3416,24.3772" id="Fill-6"></path>
                <path d="M103.8629,25.9527 C103.8369,27.3937 104.4119,28.1307 105.5609,28.1277 C106.6189,28.1247 107.3829,27.3557 107.4359,26.2387 C107.4889,25.1577 106.5529,24.2777 105.3799,24.3047 C104.3579,24.3277 103.8839,24.8427 103.8629,25.9527 M105.9219,30.2057 C104.2829,30.3327 103.2379,29.5217 102.6649,28.0657 C102.3969,27.3867 102.1969,26.6677 102.0699,25.9487 C101.6459,23.5397 103.2879,21.9107 105.6849,22.3177 C109.0289,22.8857 110.3539,25.7017 108.7099,28.6607 C108.0829,29.7897 107.1879,30.3057 105.9219,30.2057" id="Fill-8"></path>
            </g>
        </g>
    </g>
</svg>