<?xml version="1.0" encoding="UTF-8"?>
<svg width="311px" height="96px" viewBox="0 0 311 96" version="1.1" xmlns="http://www.w3.org/2000/svg" xmlns:xlink="http://www.w3.org/1999/xlink">
    <!-- Generator: Sketch 48.2 (47327) - http://www.bohemiancoding.com/sketch -->
    <title>logotipo color header</title>
    <desc>Created with Sketch.</desc>
    <defs>
        <polygon id="path-1" points="0.298080236 0 5.3832596 0 5.3832596 23.7794515 0.298080236 23.7794515 0.298080236 0"></polygon>
    </defs>
    <g id="Header-desktop" stroke="none" stroke-width="1" fill="none" fill-rule="evenodd" transform="translate(-128.000000, -106.000000)">
        <g id="logotipo-color-header" transform="translate(128.000000, 106.000000)">
            <path d="M226.132725,43.8681014 C225.772118,43.7761014 225.103818,44.0201014 225.007787,43.3941014 C224.925474,42.8581014 225.513421,42.6161014 225.936743,42.4221014 C226.73635,42.0601014 227.579074,41.8721014 228.455115,42.0981014 C229.082258,42.2621014 229.17633,42.6161014 228.694214,43.0421014 C227.984758,43.6681014 227.126355,43.8721014 226.132725,43.8681014" id="Fill-1" fill="#264653"></path>
            <path d="M226.028267,59 C226.248267,59.28 226.224267,59.6 226.192267,59.922 C225.948267,59.648 225.992267,59.324 226.028267,59" id="Fill-3" fill="#264653"></path>
            <path d="M226.021128,59.296 C226.019128,59.18 225.933128,59.002 226.123128,59 C226.223128,59 226.209128,59.174 226.179128,59.284 L226.101128,59.302 L226.021128,59.296 Z" id="Fill-5" fill="#264653"></path>
            <path d="M291.238468,66.4876474 C290.052177,67.8749983 288.828004,67.947277 287.454298,66.7265689 C285.933054,65.3793729 285.015921,63.6346437 284.359972,61.7353183 C284.04695,60.8318336 283.825642,59.9343722 284.15262,58.9706553 C284.304146,58.5209207 284.32209,58.025008 284.399847,57.5531883 C284.479598,57.5672425 284.555361,57.5572038 284.591249,57.5873199 C286.503271,59.3962969 288.82601,59.5067228 291.240462,59.2256387 C291.780773,59.1633987 292.317096,59.0429341 292.851426,58.9284927 C293.174416,58.8602294 293.385756,58.902392 293.389743,59.2959098 C293.417656,61.9200307 293.004946,64.4196715 291.238468,66.4876474 M288.21193,53.459399 C290.038221,53.0719045 291.856536,54.0597144 292.656037,55.9590398 C291.489683,56.2461472 290.373173,56.4910919 289.220776,56.1919381 C288.564827,56.0212799 287.970684,55.7261416 287.55598,55.1619656 C286.997726,54.4030385 287.294797,53.6501347 288.21193,53.459399 M310.364677,45.5167653 C309.443557,44.900388 307.675085,45.3240219 307.124805,46.2897465 C307.033092,46.4523738 306.933404,46.6190165 306.96331,46.8057367 C307.047048,47.3297577 306.734027,47.6610354 306.428981,48.0063673 C305.962439,48.5344039 305.438078,48.9941772 304.889792,49.4338731 C302.740511,51.1484861 300.419766,52.5920538 297.95547,53.8007154 C297.472978,54.0376292 297.006437,54.320721 296.45217,54.4713018 C296.290674,54.1942332 296.143136,53.929211 295.985628,53.6702121 C295.31971,52.5739841 294.434477,51.7126621 293.278092,51.1545094 C291.078967,50.092413 288.833985,50.0121032 286.581028,50.9597582 C285.374799,51.4657096 284.350003,52.2326677 283.789754,53.4614068 C283.566452,53.945273 283.367076,54.0436524 282.842715,53.9392498 C281.469009,53.6641889 280.502032,54.336783 280.111254,55.6960254 C279.820164,56.7079282 279.652687,57.7499472 279.780288,58.7779119 C279.967703,60.2977738 279.602843,61.6811092 279.074495,63.0584213 C278.879106,63.5724037 278.703654,64.094417 278.492315,64.6023762 C277.547269,66.8952194 276.406834,69.0816522 274.851696,71.0271558 C274.317366,71.6977421 273.729205,72.3181349 272.993505,72.7678695 C272.513007,73.0589923 272.323599,72.99876 272.026528,72.5229248 C271.619799,71.8663926 271.394504,71.1355739 271.233008,70.3866855 C270.521234,67.1180789 270.26005,63.7992787 270.168337,60.4664243 C270.022792,55.2001128 270.437495,49.9518709 270.690704,44.6976059 C270.714629,44.2057087 270.927962,44.1133525 271.348647,44.0470969 C273.926588,43.6415327 276.482597,43.1175116 278.958856,42.2642206 C279.393498,42.1136398 279.812189,41.9409739 280.191004,41.6859904 C280.370443,41.5675335 280.575802,41.4330147 280.53792,41.1920855 C280.49007,40.8969472 280.206955,40.8447458 279.977671,40.8126219 C279.710507,40.7784903 279.429385,40.7925445 279.164214,40.8427381 C278.809324,40.9089936 278.454433,41.0093808 278.111505,41.1278377 C276.64808,41.6378046 275.154749,42.0353378 273.633504,42.3284684 C272.728334,42.5011343 271.823164,42.7019087 270.927962,42.7480868 C270.927962,41.5434406 270.919987,40.4170964 270.929956,39.2887445 C270.941918,38.4033296 270.987775,37.5159069 271.003725,36.6284842 C271.0117,36.0402153 270.82628,35.5543414 270.268025,35.2612108 C268.806594,34.4902373 267.054072,35.5161943 267.020178,37.1565208 C266.978309,39.0197069 266.906534,40.8849007 266.87264,42.7500945 C266.864665,43.1656975 266.75102,43.3383634 266.312391,43.3745028 C265.467034,43.4487893 264.62367,43.5752772 263.786288,43.7158192 C262.743548,43.8925007 261.668907,43.9547407 260.697943,44.4365992 C260.34704,44.6112729 259.894455,44.8341324 260.022056,45.2798515 C260.121744,45.6372299 260.592273,45.5308195 260.919251,45.5348349 C261.160497,45.5368427 261.40573,45.518773 261.644982,45.4806259 C262.514265,45.3440993 263.375572,45.1573791 264.250836,45.0630152 C265.074262,44.9746745 265.889712,44.6895749 266.623419,44.8100395 C266.623419,45.9845695 266.67725,47.0868208 266.61345,48.181041 C266.366223,52.5800073 266.226659,56.9809814 266.30641,61.3859709 C266.360241,64.3554237 266.601487,67.3088146 267.062048,70.242128 C267.275381,71.6053859 267.622296,72.9304967 268.326096,74.1391584 C269.033883,75.3538433 270.096561,75.9541586 271.472261,75.9963212 C273.206838,76.0505303 274.755995,75.504424 276.123719,74.4383122 C276.97107,73.7777645 277.686833,72.9867135 278.328826,72.1314147 C279.55898,70.4890805 280.581783,68.7242738 281.476984,66.8791574 C281.584648,66.6522824 281.598604,66.3390744 281.911626,66.232664 C282.224647,66.6502746 282.521718,67.0739086 282.844709,67.477465 C283.711997,68.5656621 284.744769,69.4631235 286.008817,70.0453691 C288.606696,71.2459998 291.023142,70.954877 293.212298,69.0635825 C294.121456,68.2805625 294.849181,67.3389307 295.437342,66.2969118 C296.850923,63.7932555 297.584629,61.1149255 297.327433,58.2197592 C297.277589,57.6696374 297.429116,57.4086307 297.935532,57.1998254 C299.115843,56.7179669 300.244315,56.1136361 301.348862,55.4751736 C303.587862,54.1821867 305.777019,52.8068824 307.844555,51.2448578 C308.795582,50.5280933 309.676827,49.7310191 310.352714,48.7331705 C310.791343,48.0886848 311.074458,47.3919978 310.982745,46.5848849 C310.932901,46.1331425 310.745487,45.7717487 310.364677,45.5167653" id="Fill-7" fill="#264653"></path>
            <path d="M222.127336,60.5328333 C221.442198,62.9316963 220.354392,65.1132061 218.701647,66.9975998 C218.341048,67.4063836 217.984456,67.8251377 217.433541,68.1521648 C216.546067,67.2927217 216.435884,66.1939906 216.281628,65.1132061 C216.225535,64.7084104 216.349741,64.2577512 215.909009,63.9606351 C215.826873,63.9028072 215.842899,63.6754835 215.844903,63.5279225 C215.888976,60.4191714 216.193482,57.3483077 217.115012,54.3611947 C217.329368,53.6632711 217.60182,52.9872823 217.990466,52.3651333 C218.329028,51.824741 218.393134,51.7848596 218.930026,52.062035 C220.963403,53.1049323 222.257552,54.6902158 222.471908,57.0172925 C222.582091,58.2077507 222.455881,59.3802623 222.127336,60.5328333 M231.715258,66.5250058 C231.004077,62.3693693 230.07253,58.245638 229.976371,54.0062507 C229.968357,53.6253838 229.800078,53.4299652 229.435472,53.4279712 C228.171373,53.4140127 226.961364,53.5874966 226.00177,54.5346786 C225.767381,54.2794379 225.703274,53.9404465 225.561038,53.6433304 C223.357379,49.0509933 217.193142,48.9293551 214.556763,52.5505815 C213.923712,53.421989 213.45293,54.3611947 213.116371,55.3781691 C213.022215,55.6573385 213.014202,55.9843656 212.721716,56.1698138 C212.391167,56.3791909 212.268964,56.7281527 212.134741,57.0671442 C211.784159,57.9405457 211.5077,58.837876 211.279321,59.7511589 C210.964798,61.0094154 210.802529,62.2935948 210.656286,63.7113767 C210.073318,63.3125632 209.582503,62.9755658 209.089684,62.6405625 C207.47901,61.5478136 205.794212,60.5587562 204.265673,59.342375 C203.622605,58.8298997 202.979537,58.3114422 202.478706,57.6514059 C201.545155,56.4190723 201.817608,55.3562343 203.23997,54.7320912 C203.997227,54.399082 204.808575,54.251521 205.625932,54.1278888 C206.37718,54.014227 207.138444,53.9304762 207.865652,53.6931821 C208.240274,53.571544 208.612893,53.4279712 208.897365,53.1348433 C209.031588,53.0012407 209.141771,52.8556738 209.067648,52.6562671 C209.005545,52.4787951 208.831255,52.4708188 208.689019,52.4668307 C208.354463,52.4548663 208.013898,52.4329315 207.685352,52.4807892 C205.363496,52.8377272 203.069687,53.3182975 200.894074,54.2415507 C200.275046,54.5047676 199.684065,54.8178361 199.15118,55.2306081 C197.826981,56.2595469 197.648684,57.4200941 198.598261,58.7940065 C199.107106,59.5298174 199.768204,60.1140791 200.475379,60.6464951 C201.793568,61.6335585 203.177867,62.5189244 204.552149,63.424231 C205.211244,63.8569436 205.888368,64.2677215 206.509399,64.8121019 C205.325433,65.9866076 204.049314,66.6446498 202.30642,66.1780381 C201.08439,65.851011 199.98256,66.4213143 198.968877,67.0673921 C198.630315,67.2867395 198.670381,67.4881403 199.028977,67.6476657 C199.195253,67.7194521 199.373549,67.7673098 199.547838,67.8111792 C200.874041,68.158147 202.21026,68.1561529 203.540469,67.8949301 C205.994544,67.4143598 208.104048,66.2438423 209.991181,64.6406121 C210.159461,64.4970392 210.273651,64.2378105 210.596186,64.2936444 C210.427907,69.3924747 211.163128,74.4075542 211.996512,79.4106693 C212.319047,81.326968 212.717709,83.2352905 212.914035,85.1615596 C213.230561,88.2423937 213.685316,91.3072753 213.831559,94.4020679 C213.849589,94.7729644 213.987819,94.966389 214.364444,94.9883237 C215.362101,95.0501398 216.307671,94.8686797 217.189135,94.3920975 C217.563757,94.1926908 217.772103,93.8935807 217.75207,93.4389333 C217.707997,92.3461844 217.712003,91.2534355 217.615844,90.1626806 C217.427531,88.01507 217.066932,85.8874001 216.836549,83.7477658 C216.383798,79.4904319 216.103332,75.2171455 215.915019,70.939871 C215.884969,70.2060542 215.688643,70.1203093 216.718353,70.0046534 C216.928703,69.9807246 217.137049,69.9248907 217.341388,69.8670627 C219.887616,69.1611629 221.84687,67.6436776 223.377412,65.5359484 C224.755701,63.6375962 225.635161,61.5218907 226.15803,59.2486539 C226.226143,59.162909 226.208113,59.045259 226.260199,58.9535319 C226.216126,59.0612115 226.218129,59.1589208 226.316292,59.2386835 L226.316292,59.2366895 C226.524638,59.5158589 226.298262,59.8708029 226.480565,60.1559545 C226.94734,63.4581301 227.802761,66.7004837 228.05518,70.0385525 C228.099253,70.6387668 228.179386,70.7005829 228.784391,70.7185295 C229.683885,70.7464464 230.539305,70.5410575 231.346646,70.1462322 C231.793388,69.9268847 232.025774,69.5938755 231.997727,69.0554773 C231.951651,68.2060046 231.857495,67.36052 231.715258,66.5250058" id="Fill-9" fill="#264653"></path>
            <path d="M175.955797,61.2673627 C175.792426,62.4153957 175.467653,63.5157594 174.967699,64.5466056 C173.288721,68.0125528 171.227889,71.2262506 168.641515,74.078457 C168.407285,74.3386513 168.210453,74.6624046 167.83844,74.767674 C167.726246,74.6504873 167.736087,74.5293281 167.82663,74.4041965 C167.85025,74.2552303 167.944729,74.0605811 167.883711,73.9652427 C167.312898,73.0337073 167.429029,71.9710817 167.354233,70.9680425 C167.167242,68.4654101 167.04127,65.9568191 166.97041,63.4502143 C166.860184,59.606886 166.480298,55.7893785 166.104349,51.9678986 C165.854372,49.4414317 165.592585,46.9149647 165.488264,44.3765804 C165.478423,44.106455 165.488264,43.8403021 165.488264,43.5225075 C166.141747,43.4152518 166.730275,43.6138734 167.303057,43.8323572 C168.590339,44.3169939 169.663074,45.1333288 170.621646,46.1045885 C173.011188,48.5237998 174.473651,51.4733308 175.371205,54.7227805 C175.96367,56.8599491 176.26876,59.036842 175.955797,61.2673627 M175.772743,46.4680661 C175.10745,45.5246134 174.306344,44.7082785 173.400916,43.9991994 C171.853815,42.7895937 170.143344,41.9752451 168.16715,41.790527 C167.269595,41.7071059 166.377946,41.790527 165.494169,41.9116862 C165.317021,41.5740294 165.37607,41.2661659 165.360324,40.9702197 C165.338672,40.5570867 165.139872,40.2670992 164.767859,40.1439538 C163.858494,39.8400627 163.000306,40.0466292 162.17558,40.4895554 C161.449269,40.8768675 161.488636,41.5462224 161.518161,42.2235221 C161.537844,42.672407 161.610672,43.1292367 161.130401,43.4331277 C160.961126,43.5383972 160.947347,43.8045502 161.14418,43.8839988 C161.628387,44.0806342 161.561464,44.4838361 161.587052,44.8651896 C161.754359,47.2804285 161.939381,49.6916949 162.183453,52.1009751 C162.523973,55.4676115 162.929447,58.8302755 163.016053,62.2227327 C163.084944,65.0074078 163.181392,67.7900966 163.386097,70.5668268 C163.510102,72.203469 163.364446,73.8996976 164.11044,75.4509324 C164.134059,75.4986016 164.159648,75.576064 164.137996,75.6177746 C163.842748,76.1898048 164.330892,76.3765091 164.645823,76.5949929 C165.395753,77.1114091 166.248036,77.0438778 167.080636,76.8829943 C168.741899,76.5632135 170.202394,75.8104375 171.397165,74.6048043 C174.847632,71.1170087 177.595408,67.1564937 179.264545,62.4888857 C179.851104,60.8502573 180.108954,59.1599874 179.957394,57.4101309 C179.607033,53.3542775 178.095362,49.7512814 175.772743,46.4680661" id="Fill-11" fill="#264653"></path>
            <path d="M168.181527,75 C168.185527,75.122 168.189527,75.244 168.193527,75.366 C167.937527,75.292 167.937527,75.254 168.181527,75" id="Fill-13" fill="#264653"></path>
            <path d="M239.301301,54.2854858 C239.52953,53.2146955 240.19437,52.3957393 240.924701,51.6243737 C241.611371,50.9045647 242.323841,50.210534 243.226833,49.7564396 C243.901595,49.4153731 244.225084,49.490725 244.546589,50.1411309 C245.580564,52.260899 244.852217,55.3324807 241.8654,55.9055517 C241.452604,55.9848695 241.0279,55.9967672 240.688534,56.0324602 C238.604708,55.8698587 238.902397,56.1534198 239.301301,54.2854858 M264.650549,49.0762895 C263.237516,49.2250104 261.846314,49.5006397 260.51465,50.0221542 C258.827743,50.6804919 257.375019,51.6779132 256.100908,53.1651219 C256.083047,52.9410491 256.065186,52.8815608 256.075108,52.8240554 C256.345014,51.1682964 256.28746,49.5145203 256.027478,47.8647102 C255.912372,47.1409353 255.749635,47.0060951 255.01335,47.0001462 C254.400109,46.9941974 253.826561,47.1706795 253.249043,47.3630251 C252.407575,47.6446033 251.996763,48.195862 251.883641,49.0723236 C251.661366,50.7895539 251.583967,52.5008354 251.81418,54.2200486 C251.873718,54.6642282 251.93921,55.1084079 251.794334,55.5644852 C251.042172,57.9142749 249.706539,59.8337656 247.640575,61.2158782 C246.416079,62.0328515 245.060599,62.373918 243.595967,62.2589072 C241.408942,62.086391 239.559299,60.4544273 239.154441,58.3564716 C239.049258,57.8171106 239.049258,57.7972812 239.612883,57.7774517 C240.339245,57.7536564 241.061638,57.6842533 241.774108,57.551396 C243.516584,57.228176 245.159829,56.6590708 246.572862,55.5506046 C247.51753,54.8070003 248.249846,53.9007944 248.654703,52.7566352 C249.722416,49.742559 247.831096,47.3511275 244.671619,47.7159893 C241.061638,48.1343907 237.106338,51.1048421 235.723074,54.458002 C235.544461,54.888301 235.381724,55.247214 234.841914,55.3463613 C234.246535,55.4554232 233.690848,55.7211379 233.228437,56.1296245 C232.900978,56.4171515 232.922809,56.6451902 233.31179,56.8117576 C233.724586,56.9922055 234.165166,57.1151481 234.597808,57.2440395 C234.885575,57.3312891 235.052281,57.4581976 235.042358,57.8091788 C235.022512,58.3822499 235.125711,58.953338 235.278525,59.5065797 C235.985041,62.0824251 238.219696,63.9007855 241.067592,64.0851994 C245.409888,64.3667776 249.21039,63.0104433 252.455205,60.107412 C252.596111,59.9785205 252.675495,59.7405672 252.929523,59.7802261 C253.066461,59.9289469 253.09226,60.1113779 253.145844,60.2819111 C253.741223,62.2450266 254.334618,64.2061591 254.943889,66.1633257 C255.164179,66.8771858 255.318977,66.9723672 256.037401,66.9981455 C256.714148,67.0199579 257.357158,66.8474417 257.968413,66.581727 C258.950788,66.1573768 259.065895,65.8876963 258.764236,64.8347526 C258.712637,64.6602534 258.655084,64.4897202 258.605469,64.317204 C257.912845,61.9693972 257.654847,59.5898633 258.03589,57.15679 C258.260149,55.7370014 258.694775,54.3985136 259.516398,53.2067637 C260.472974,51.8167194 261.747084,50.9402577 263.485591,50.8351616 C263.997617,50.8034345 264.497735,50.6725602 264.974038,50.4722827 C265.646816,50.1867387 266.131058,49.6989342 265.968321,49.4510661 C265.65277,48.9731764 265.128836,49.0267159 264.650549,49.0762895" id="Fill-15" fill="#264653"></path>
            <path d="M187.340673,60.2887913 C187.431736,59.4659216 187.63366,58.6808165 188.023649,57.953352 C188.486886,57.0847674 189.187679,56.5938283 190.209175,56.6315928 C190.781291,56.6534565 191.349449,56.6534565 191.883952,56.8879942 C191.517718,59.0962266 189.973597,60.5630812 187.829644,60.7777428 C187.427777,60.8194826 187.295141,60.7141394 187.340673,60.2887913 M198.426671,62.8428674 C197.415073,62.4254697 195.393858,62.9342973 194.960317,64.0572958 C194.635655,64.8960663 194.095213,65.6473821 193.546852,66.3728589 C193.069758,67.000943 192.533275,67.5693989 191.878013,68.0185982 C191.406858,68.3405907 190.927785,68.3863057 190.444752,68.0623256 C190.195317,67.8953665 189.935984,67.7323827 189.722182,67.5236839 C188.633379,66.4543509 188.061262,65.0988023 187.637619,63.6617618 C187.556454,63.3894595 187.671273,63.2642402 187.932586,63.2344261 C188.081059,63.2185253 188.231512,63.2085872 188.379985,63.1827483 C190.250747,62.8508178 191.978975,62.1968948 193.439951,60.9427143 C194.881131,59.7084098 195.698723,58.1342243 195.898667,56.2479845 C196.025364,55.0832463 195.815522,54.7930555 194.710882,54.4949144 C193.600302,54.1967732 192.469926,54.0357769 191.319754,54 C190.807027,54.0357769 190.294299,54.0536654 189.785531,54.1132936 C186.269686,54.5108152 183.719906,57.1543337 183.42494,60.6962509 C183.399204,61.0281814 183.375449,61.344211 183.181444,61.6443398 C182.953785,61.9961464 182.920131,62.4175193 183.197281,62.7474622 C183.500166,63.103244 183.514024,63.5206416 183.595189,63.9281013 C183.943606,65.7070103 184.58501,67.350762 185.774775,68.7400999 C187.784112,71.0874648 190.753576,71.6698339 193.44787,70.1870784 C196.015466,68.7778644 197.573445,66.4444128 198.887927,63.9261137 C199.14726,63.4311993 198.941378,63.0595166 198.426671,62.8428674" id="Fill-17" fill="#264653"></path>
            <path d="M144.390271,36 C141.627614,35.9533937 139.206249,35.2380884 136.958561,33.9209539 C134.258507,32.3343135 132.091599,30.1701603 130.2781,27.6372095 C129.868144,27.0657757 129.898436,26.7942434 130.455815,26.4092349 C131.233317,25.8702229 132.107754,25.6128751 133.064991,25.6331387 C133.521395,25.6452969 133.781909,25.9006183 134.024247,26.2450997 C134.771457,27.3048863 135.597427,28.3018558 136.49206,29.2400608 C137.814823,30.6321705 139.260775,31.8723033 140.943008,32.8105083 C142.38694,33.6129471 143.917711,34.1195373 145.587826,34.1661436 C149.909527,34.2836725 151.333265,30.2228457 150.355834,27.5338651 C149.749988,25.8661702 148.76044,24.4862186 147.443735,23.3271403 C146.326959,22.3463817 145.076896,21.5601538 143.80462,20.8083739 C142.58485,20.0869895 141.363061,19.3757369 140.163486,18.6239571 C138.881112,17.8154392 137.711829,16.8671024 136.746515,15.6857341 C134.613937,13.0798343 134.547294,10.0544778 136.558703,7.35333899 C137.227153,6.4556612 138.041006,5.70590775 138.96593,5.07773594 C142.485895,2.69270941 146.347153,1.57821103 150.586055,2.14559202 C155.125861,2.75552659 158.108642,5.80519942 158.950768,10.3057465 C159.088093,11.0473945 158.960866,11.2743469 158.278279,11.6492236 C157.561362,12.0463903 156.785879,12.2206574 155.972026,12.2044465 C155.269245,12.1922883 155.115764,12.0686803 154.980458,11.3736386 C154.806782,10.4597499 154.542229,9.58030938 154.180741,8.72518517 C151.684656,2.85684462 144.232751,2.49615242 140.587578,6.76366803 C138.555975,9.14666819 138.553955,12.0362585 140.595656,14.415206 C141.528659,15.5013353 142.643415,16.3767231 143.847029,17.1285029 C145.25865,18.0059171 146.696525,18.8387514 148.120262,19.6918492 C149.471299,20.5023935 150.771848,21.3757549 151.894683,22.4922797 C153.284089,23.8783104 154.241326,25.5034516 154.536171,27.4649688 C154.845152,29.4994349 154.215073,31.2441315 152.797393,32.7051375 C151.290856,34.2593562 149.412734,35.1387967 147.34478,35.6352551 C146.326959,35.8784184 145.284904,35.9939209 144.390271,36" id="Fill-19" fill="#264653"></path>
            <path d="M177.021936,24.2598276 C177.339008,23.3926259 177.558977,22.7321876 177.822544,22.0898159 C178.147543,21.2988958 178.555774,20.5501314 179.076962,19.8676115 C180.949671,17.4125474 183.442654,16.6135977 186.383501,17.1676432 C187.76673,17.4286067 188.866575,18.2335787 189.736542,19.3557216 C190.703613,20.6023241 191.272362,22.0416381 191.708337,23.5451892 C192.330592,25.6850897 192.72495,27.8791903 193.14309,30.0672688 C193.309553,30.9384853 193.472052,31.8117092 193.884247,32.6026293 C194.120069,33.0542969 193.977387,33.3674531 193.62068,33.6203869 C192.800255,34.2005288 191.88669,34.4655071 190.883948,34.3450624 C190.380596,34.2868475 190.103157,33.947595 189.899042,33.503957 C189.296604,32.1870952 189.023129,30.7819072 188.811087,29.3606599 C188.495996,27.2428409 188.083802,25.1511183 187.384261,23.1256402 C187.083042,22.2584385 186.726335,21.4173331 186.193257,20.6665613 C185.763228,20.0623304 185.247985,19.5685072 184.542499,19.289477 C183.831067,19.0104469 183.244483,19.1750546 182.733204,19.709026 C182.265522,20.2028492 181.968267,20.8030652 181.722535,21.4333924 C180.943726,23.436789 180.594946,25.5465783 180.307599,27.6643973 C180.030161,29.7260088 179.879552,31.7996648 179.927112,33.8813504 C179.942966,34.6240926 179.625894,35.1018565 179.029401,35.4391016 C178.387329,35.8004357 177.705623,36.0373102 176.958521,35.9951546 C176.338248,35.9610286 176.096481,35.7622948 175.95578,35.1420047 C174.974837,30.8521666 173.647096,26.6707287 172.117221,22.553528 C171.865545,21.8750229 172.012191,21.4855851 172.624537,21.1122066 C173.345877,20.6745909 174.126668,20.4979387 174.964928,20.558161 C175.470262,20.5963019 175.797243,20.8271542 175.965688,21.329007 C176.274834,22.246394 176.61965,23.1497291 177.021936,24.2598276" id="Fill-21" fill="#264653"></path>
            <path d="M181.264315,15.0864686 C179.699339,15.11945 178.144447,14.9195002 176.585522,14.8081879 C175.972439,14.7669612 175.359355,14.7381024 174.748289,14.7133664 C174.314694,14.698937 173.987985,14.7752065 173.691527,15.2266397 C173.251882,15.9006974 172.483511,16.0573591 171.72119,15.9831509 C171.085923,15.9192494 170.886268,15.5626378 171.059706,14.9298069 C171.283562,14.1279462 171.789759,13.5652008 172.509728,13.1982825 C173.237765,12.8293029 174.016219,12.6850092 174.820891,12.6458438 C176.420151,12.5675129 178.00126,12.8004442 179.590436,12.9323699 C181.270365,13.0746022 182.952311,13.2024052 184.630223,12.866407 C186.064111,12.579881 187.294311,11.9388047 188.21797,10.7597191 C188.792735,10.0300052 189.534889,9.87334348 190.363761,10.089784 C191.013145,10.2608751 191.178516,10.7370443 190.799373,11.3100964 C190.168139,12.2583122 189.327166,12.9839033 188.36519,13.5652008 C186.74173,14.5360912 184.956931,14.9462976 183.103565,15.0782233 C182.492498,15.1235727 181.879415,15.0864686 181.264315,15.0864686" id="Fill-23" fill="#264653"></path>
            <path d="M202.975114,24.746784 C202.789279,26.7583401 202.268132,28.7015715 201.336935,30.516192 C201.145039,30.8959963 200.945064,30.9080535 200.636012,30.666908 C200.262321,30.3795428 199.989628,30.019834 199.769453,29.6139056 C199.242246,28.6432947 198.933194,27.4214904 198.925114,26.0791134 C199.062471,23.6596194 199.854291,21.3144787 201.795463,19.4496195 C202.367109,18.8990038 202.550925,18.9271374 202.940775,19.6244501 C203.231648,20.1409035 203.391224,20.6854906 203.278107,21.2903641 C203.070052,22.433796 203.080152,23.5973235 202.975114,24.746784 M229.640478,16.0816196 C229.276887,15.9710946 228.913296,16.0132951 228.549705,16.1097533 C225.768233,16.8573046 223.132198,17.9243738 220.823395,19.6766983 C219.156936,20.9386935 217.837908,22.4940824 216.987509,24.4172184 C216.941051,24.5257339 216.882472,24.6262113 216.827933,24.7327172 C216.54514,24.1278437 216.230028,23.5711994 216.310826,22.9000108 C216.609779,20.4162114 216.14721,18.0268606 215.310951,15.6957867 C215.092796,15.0788559 214.953419,14.9924454 214.294916,15.0004836 C213.545514,15.0125409 212.838532,15.2074669 212.151748,15.4948321 C211.501324,15.7721495 211.172073,16.1740588 211.206412,16.9678296 C211.311449,19.363209 211.671,21.7143784 212.218407,24.0414332 C212.289105,24.3428652 212.377983,24.6262113 212.299205,24.94171 C212.002272,26.107247 211.580103,27.2165167 210.838781,28.181099 C210.06312,29.1878818 209.606611,29.2481681 208.701673,28.3277959 C207.376586,26.9773806 206.887758,25.2913711 207.057434,23.4466075 C207.170551,22.2067173 207.457384,20.9869226 207.471524,19.7329656 C207.477584,19.2064644 207.60484,18.6880014 206.871598,18.5232186 C206.728182,18.495085 206.639304,18.2539394 206.520127,18.1132711 C206.097958,17.6289704 205.554591,17.3596912 204.918307,17.2994048 C204.36484,17.245147 203.809354,17.245147 203.261947,17.3275385 C197.632346,18.171548 193.774241,24.1800919 195.357882,29.6259629 C195.810351,31.1753232 196.836486,32.1760774 198.399927,32.5136812 C200.953144,33.0622874 203.14681,32.3649747 204.869828,30.3815524 C205.144541,30.064044 205.304117,29.9032803 205.754566,30.148445 C206.639304,30.6327457 207.62302,30.7091084 208.622895,30.5925547 C210.339853,30.3976287 211.909354,29.8429939 213.286961,28.7859725 C213.375838,28.7196574 213.466736,28.6171706 213.644492,28.7156383 C213.70307,28.8502779 213.775788,29.0150608 213.840427,29.1858722 C214.373694,30.5543734 214.979679,31.8907218 215.581624,33.2290797 C215.858357,33.8379723 216.256287,34.0489747 216.880452,33.9906978 C217.561175,33.9243828 218.205539,33.7515618 218.837784,33.4963494 C219.510427,33.2210415 219.81948,32.8131036 219.768981,32.0233518 C219.655864,30.1564832 219.744742,28.2956431 220.100253,26.4488699 C220.861774,22.4981015 223.002921,19.6344978 226.747909,18.0188224 C227.366014,17.7535623 228.002298,17.524474 228.634543,17.2873475 C229.038533,17.1366315 229.432423,16.9638105 229.781874,16.7085981 C229.901051,16.6181685 230.034368,16.509653 229.991949,16.3328129 C229.95155,16.1620015 229.777835,16.119801 229.640478,16.0816196" id="Fill-25" fill="#264653"></path>
            <path d="M167.609427,34.8558522 C167.306032,35.207098 166.984554,35.5419113 166.689197,35.8993193 C166.399866,36.246457 166.136656,36.2731599 165.762938,35.9938065 C164.949197,35.3775857 164.402685,34.5621203 163.9928,33.6439514 C163.345826,32.1896705 162.88571,30.6696593 162.560214,29.1106209 C162.124209,27.0236867 161.975526,24.9162118 162.164394,22.7635474 C162.628528,22.6608439 162.945988,22.8272235 163.233308,22.9730624 C165.911622,24.3431265 167.910813,26.3520061 168.780813,29.3571092 C169.369519,31.3906376 169.007856,33.2475161 167.609427,34.8558522 M163.426195,21.0032102 C162.100099,20.9580206 160.786057,21.3996455 159.447905,21.7159721 C159.1204,21.7940268 158.817005,21.9562982 158.575896,22.2110028 C158.378991,22.4184638 157.892756,24.4951276 158.021347,24.7642107 C158.135873,25.012753 158.107744,25.2510251 158.103726,25.4934052 C158.081624,26.9066048 158.214234,28.3074799 158.459361,29.6919225 C158.845134,31.8630735 159.508183,33.9335751 160.67354,35.8068862 C161.6219,37.3310054 162.972108,38.0848488 164.762338,37.9924157 C165.379174,37.9636587 165.975917,37.8506849 166.556587,37.645278 C168.698434,36.8852724 170.44647,35.5603979 171.818779,33.7281682 C172.835453,32.3663204 173.189079,30.7990657 172.905777,29.1188372 C172.152313,24.6861561 167.89072,21.027859 163.426195,21.0032102" id="Fill-27" fill="#264653"></path>
            <path d="M98.0011418,38.6601627 C97.9848291,38.2787177 98.1438779,37.9727671 98.4415845,37.7323774 C98.5292652,37.6608564 98.6271413,37.6012557 98.7229784,37.5416549 C103.834968,34.3550005 109.189608,31.6431656 114.950027,29.7299809 C117.009504,29.0445721 119.101607,28.4743914 121.234491,28.0432792 C122.070516,27.8724236 122.682242,28.212148 122.922854,28.9790112 C123.157349,29.7299809 122.853525,30.278308 122.06236,30.4432034 C114.2078,32.066331 107.099545,35.3801337 100.354247,39.5243738 C100.209472,39.6117883 100.068775,39.7071495 99.919922,39.7925773 C99.0818575,40.2773302 98.2050504,39.8799917 98.029689,38.9382996 C98.0113372,38.8469117 98.0092982,38.7535372 98.0011418,38.6601627" id="Fill-29" fill="#BC0924"></path>
            <path d="M32.6137853,31.997848 C32.2823567,32.0196559 32.0128215,31.8749308 31.8151623,31.5993583 C31.7492759,31.5101442 31.6973654,31.4090349 31.649448,31.3099081 C29.7207734,27.3725918 27.263011,23.766359 24.6215653,20.2770958 C22.5890697,17.5927422 20.5226326,14.9341616 18.4721679,12.2636857 C18.404285,12.1744716 18.3383986,12.0832749 18.2705156,11.9940608 C17.8652144,11.4369682 17.9171249,10.8382424 18.4142678,10.3465735 C18.8575036,9.90645051 19.5123744,9.88067755 20.0394656,10.2970101 C20.1832178,10.4100146 20.3149906,10.5507747 20.4267978,10.6974823 C23.0382951,14.1788154 25.7955412,17.5511089 28.3391555,21.0839879 C30.2877957,23.7861843 32.1046631,26.5696647 33.6000847,29.5513987 C33.6999126,29.7496523 33.801737,29.9479059 33.8915821,30.1501246 C34.3288282,31.1413925 33.350515,32.0137083 32.6137853,31.997848" id="Fill-31" fill="#BC0924"></path>
            <path d="M98.999761,11.2424226 C99.0079151,11.597807 98.8061012,11.8653216 98.6022488,12.1308835 C97.2078986,13.9410007 95.8196639,15.7569758 94.4171595,17.5592823 C91.3858747,21.4606999 88.3321661,25.3464961 85.4476549,29.3514047 C84.8585216,30.1695699 83.9350703,30.2164338 83.3031279,29.4763751 C82.9504633,29.0682688 82.9035773,28.6191567 83.1726624,28.1544233 C83.264396,27.994305 83.3805918,27.8478554 83.4886336,27.6975005 C86.8297741,23.0618823 90.4012677,18.5863823 93.901413,14.060113 C94.7412848,12.9744333 95.5730025,11.8789902 96.4087972,10.7913578 C96.512762,10.6566242 96.6085726,10.5199379 96.7247684,10.3969202 C97.0937412,10.0024826 97.5524091,9.90289685 98.0742712,10.0942577 C98.6083644,10.2895238 98.9956839,10.7718312 98.999761,11.2424226" id="Fill-33" fill="#BC0924"></path>
            <g id="Group-37" transform="translate(56.000000, 0.000000)">
                <mask id="mask-2" fill="white">
                    <use xlink:href="#path-1"></use>
                </mask>
                <g id="Clip-36"></g>
                <path d="M5.3196,21.7858 C5.3396,22.0098 5.3616,22.2358 5.3776,22.4578 C5.4276,23.1738 5.1456,23.6098 4.5596,23.7398 C3.8216,23.9018 3.1356,23.5558 2.9076,22.9138 C2.8576,22.7698 2.8396,22.6238 2.8316,22.4738 C2.6896,19.7998 2.4516,17.1318 2.1436,14.4698 C1.8136,11.6058 1.4156,8.7498 0.9756,5.9018 C0.7576,4.4778 0.5436,3.0518 0.3236,1.6278 C0.2896,1.4198 0.2876,1.2198 0.3296,1.0138 C0.4536,0.3798 0.8716,0.0098 1.4856,-0.0002 C2.1756,-0.0102 2.6556,0.3398 2.7656,1.0018 C3.0276,2.5898 3.2756,4.1818 3.5076,5.7738 C3.8396,8.0718 4.1756,10.3678 4.4656,12.6698 C4.7036,14.5478 4.8876,16.4298 5.0736,18.3118 C5.1876,19.4678 5.2556,20.6278 5.3456,21.7838 C5.3356,21.7858 5.3276,21.7858 5.3196,21.7858" id="Fill-35" fill="#BC0924" mask="url(#mask-2)"></path>
            </g>
            <g id="Group-40" transform="translate(0.000000, 33.000000)" fill="#BC0924">
                <path d="M14.6984,8.7252 C12.2464,8.6092 9.8624,7.9552 7.5524,6.9892 C5.1104,5.9632 2.8484,4.6172 0.6544,3.1472 C-0.2096,2.5692 -0.1256,1.5012 0.3724,0.9512 C0.7304,0.5592 1.1664,0.4752 1.6344,0.7272 C1.8144,0.8252 1.9804,0.9492 2.1524,1.0652 C4.4044,2.5832 6.7324,3.9632 9.2804,4.9392 C11.1444,5.6552 13.0604,6.1352 15.0664,6.1572 C15.9444,6.1652 16.5524,6.8472 16.2924,7.9152 C16.1744,8.3932 15.8224,8.6732 15.3224,8.7212 C15.1384,8.7412 14.9504,8.7252 14.6984,8.7252" id="Fill-38"></path>
            </g>
            <g id="Group-43" transform="translate(23.000000, 32.000000)" fill="#FFFFFF">
                <path d="M80.9954,32.8014 C80.3114,28.6574 78.8414,24.7874 76.7294,21.1674 C73.9834,16.4614 70.2874,12.6234 65.8494,9.5034 C58.0134,3.9954 49.2594,1.1374 39.7234,0.6554 C34.6034,0.3934 29.5474,0.9014 24.5814,2.2074 C20.2034,3.3594 16.0754,5.0774 12.3174,7.6254 C4.8174,12.7134 0.7694,19.8074 0.1074,28.8274 C-0.1006,31.6614 0.1134,34.4814 0.7274,37.2594 C2.6774,46.0814 7.2774,53.1774 14.5994,58.4774 C17.0674,60.2634 19.7434,61.6894 22.6914,62.5334 C25.7874,63.4194 28.9734,63.7114 32.1714,63.9374 C34.0294,64.0714 35.8794,63.9554 37.8234,63.9134 C39.9774,63.8114 42.2254,63.7594 44.4694,63.6254 C47.3514,63.4494 50.2174,63.1814 53.0694,62.7254 C57.3354,62.0414 61.3974,60.7414 65.2414,58.7694 C69.5374,56.5694 73.3594,53.7554 76.5154,50.0754 C77.9274,48.4294 79.1054,46.6394 79.9174,44.6194 C81.4534,40.7874 81.6574,36.8274 80.9954,32.8014" id="Fill-41"></path>
            </g>
            <path d="M102.0137,74.8514651 C101.278709,77.0208806 100.084348,78.9233524 98.598388,80.6545022 C95.2669605,84.5351463 91.1725802,87.3978186 86.5708963,89.5632499 C83.4451864,91.0334323 80.1736767,92.0593726 76.7603617,92.6350944 C74.6971935,92.9817228 72.6260362,93.2486665 70.5408982,93.4179964 C68.6594805,93.5693973 66.7760656,93.682948 64.8906534,93.7586485 C62.7775537,93.8443095 60.6684486,93.9020809 58.5553489,93.9837577 C56.8137393,94.0514897 55.0901051,93.8941124 53.3604791,93.7566564 C51.6628092,93.6251766 49.9831147,93.376162 48.3134064,93.0574233 C46.2981724,92.6709525 44.3967822,91.9657431 42.5692905,91.0374165 C40.4102539,89.93976 38.4129952,88.5990652 36.5695255,87.031269 C34.843894,85.5610866 33.300013,83.91759 31.9119183,82.1207004 C29.5351804,79.0468637 27.7396449,75.6702252 26.5333007,71.9848086 C25.8961751,70.0325338 25.4487892,68.0364325 25.2151099,65.9925203 C25.0792963,64.8231476 24.9874224,63.6537748 25.0014033,62.4764336 C25.0193786,58.1555316 25.9341231,54.0477862 27.9174009,50.1910475 C29.4013641,47.3124383 31.4405652,44.8820554 33.8951961,42.7783797 C36.0362574,40.9436399 38.4030089,39.4575205 40.9455192,38.2443212 C44.0292866,36.7741388 47.2568566,35.7302694 50.6022649,35.0350206 C52.1561321,34.7103055 53.7219829,34.4592987 55.2998173,34.2859845 C57.8503166,34.005096 60.4147967,33.9333798 62.9752823,34.0608753 C66.3965864,34.2302053 69.7739508,34.7302266 73.0894002,35.6067582 C77.6391555,36.8080048 81.9272698,38.6208313 85.9337707,41.0870723 C88.87773,42.8998989 91.5700347,45.0254878 93.9467725,47.5335633 C96.0379023,49.7428211 97.8294434,52.1672276 99.2534888,54.86057 C100.603636,57.412472 101.64221,60.0819089 102.3053,62.8927861 C102.680785,64.490464 102.906475,66.106071 102.978376,67.7535518 C103.086228,70.1839347 102.794628,72.5505698 102.0137,74.8514651" id="Fill-44" fill="#BC0924"></path>
            <path d="M95.915095,60.6846951 C94.3639163,56.0105528 91.6996325,52.0075489 88.4061158,48.3937261 C87.0660089,46.916427 85.6004537,45.5622363 84.0213976,44.3390962 C81.3670701,42.2780258 78.487732,40.6240069 75.2917862,39.5497881 C72.1376566,38.4914542 68.8720172,38.1082302 65.5645618,38.0109349 C63.9994445,37.9632801 62.4383096,38.0804315 60.8751834,38.1876548 C58.6808331,38.3385617 56.5103777,38.6463324 54.3558523,39.089125 C49.7660361,40.032293 45.3673792,41.5076064 41.2554614,43.7712098 C38.6409587,45.2107821 36.263414,46.9640818 34.2343369,49.1581886 C33.1212318,50.3654437 32.1256101,51.6620516 31.3330952,53.1095664 C29.7082405,56.082035 29.0312177,59.2828495 29.001349,62.6405278 C28.9874103,63.7048185 29.08299,64.7571955 29.2183946,65.8095725 C29.6405382,69.0679699 30.8392668,72.0146255 32.7389131,74.6852803 C34.5509446,77.2308413 36.8149885,79.3177247 39.3677626,81.10478 C41.4625507,82.5761222 43.7066821,83.7873485 46.044402,84.8278118 C48.4299117,85.8921025 50.8771499,86.7876157 53.4020466,87.4647111 C55.4888698,88.0246551 57.6015791,88.455534 59.7521221,88.7017505 C61.15794,88.8645711 62.5637579,89.0353342 63.9815233,88.9936362 C64.3518945,88.9837081 64.7242571,88.9201684 65.0946284,88.9142115 C66.12211,88.8943554 67.1396354,88.7633046 68.1551696,88.6401964 C69.925385,88.4277354 71.6896268,88.1378353 73.4439123,87.7963092 C76.811105,87.1430412 80.1305079,86.3150389 83.3403924,85.0839564 C86.3013714,83.9461979 88.9337953,82.2862221 91.2436377,80.1258708 C93.0875292,78.4023553 94.541137,76.3909253 95.5606536,74.0776815 C96.3591423,72.2727557 96.8091633,70.3804627 96.9525328,68.4226444 C97.1436922,65.7778026 96.749426,63.1984862 95.915095,60.6846951" id="Fill-46" fill="#FFFFFF"></path>
            <path d="M91.0348756,78.1405229 C88.5602451,81.0006408 85.476444,82.9991332 81.9432548,84.3175 C78.7635842,85.502235 75.4800551,86.2940529 72.1505885,86.9203269 C70.2212155,87.2833266 68.2798589,87.5685405 66.3285158,87.7739744 C65.0842101,87.9056116 63.8299179,88.0252818 62.5796203,87.9953643 C61.3832493,87.9694357 60.1908728,87.8338095 59.0064855,87.6722547 C55.7908639,87.2354585 52.6551335,86.4695692 49.611278,85.3466637 C46.0541214,84.0382695 42.6407691,82.4386778 39.5389924,80.232757 C37.4398506,78.7388739 35.5464287,77.0255955 33.9665798,74.9812295 C31.8894081,72.2906444 30.5971676,69.2809387 30.1717469,65.8922774 C29.8102391,63.014209 30.0139617,60.1959757 30.834844,57.4156379 C31.6377508,54.7011188 33.1437003,52.4114289 35.0830596,50.3830189 C37.4278669,47.9337687 40.2080814,46.0948365 43.2479423,44.630871 C46.8390527,42.9056256 50.6099183,41.710918 54.5146016,40.9430342 C57.6962695,40.3167601 60.9078965,39.9816836 64.2493468,40.0036231 C67.0675096,39.963733 69.9415962,40.2509415 72.7677482,40.9789353 C76.1291712,41.8485388 79.1590458,43.4062459 81.9192874,45.478535 C86.5449891,48.9509654 90.1600668,53.2770433 92.710594,58.4727247 C93.7851309,60.664684 94.5560812,62.9663409 94.8556732,65.3956461 C95.4508628,70.1944213 94.2105516,74.4726311 91.0348756,78.1405229" id="Fill-48" fill="#E97406"></path>
            <path d="M89.8722039,66.0614097 C89.5158453,63.5037578 88.6229467,61.13608 87.319635,58.9183819 C85.4837874,55.794807 83.0753636,53.1711641 80.2765469,50.8894746 C76.6108578,47.9038809 72.3946146,46.3300951 67.6878777,46.0661311 C65.2173914,45.9261501 62.7449031,46.0021398 60.2864289,46.3540919 C57.5536787,46.7420391 54.8649728,47.3019629 52.2463374,48.1738442 C49.0030734,49.2536972 45.9520029,50.7094991 43.3053393,52.9052003 C39.8838959,55.7448138 38.0220222,59.3523228 38,63.8377123 C38.0200201,64.383638 38.0360363,64.9255643 38.0960967,65.4654908 C38.3863889,68.0791351 39.3213298,70.4328147 40.9089275,72.5225303 C42.2482754,74.2862903 43.9039417,75.7180954 45.7097591,76.9799237 C49.0571278,79.3176055 52.7768714,80.8174014 56.7188385,81.7892691 C58.7949279,82.3011994 60.8970435,82.657151 63.0311913,82.8291276 C64.8610328,82.9771074 66.6788622,83.1250873 68.5167119,82.8291276 C71.7179335,82.3111981 74.891127,81.6812838 78.0042601,80.7734074 C81.4897679,79.7615451 84.48278,77.9357936 86.9692824,75.3101509 C89.4317606,72.708505 90.3667016,69.6009279 89.8722039,66.0614097" id="Fill-50" fill="#FFFFFF"></path>
            <path d="M85.1879392,74.0029294 C82.9459465,76.2615945 80.3098456,77.8786619 77.243443,78.7877595 C74.4062666,79.6264623 71.5087674,80.1835863 68.6032253,80.7286426 C66.1340172,81.1912365 63.6869273,80.9840749 61.2398375,80.6864058 C58.032682,80.2962179 54.911989,79.5339436 51.9038983,78.3372332 C48.9943347,77.1807484 46.3059541,75.6541885 43.9433161,73.5805611 C42.1034745,71.9634936 40.6094829,70.1010503 39.7830623,67.7639454 C38.0859844,62.969059 39.0571794,57.5144734 43.5833908,53.7151695 C45.8173405,51.8406585 48.3629573,50.5172377 51.0794884,49.5035536 C53.7176,48.52205 56.4421742,47.8864862 59.2190279,47.458084 C61.0850093,47.16846 62.9550122,46.9914676 64.8451227,47.001524 C66.7513192,46.9814112 68.6394189,47.1604149 70.5114326,47.5365239 C72.8901567,48.0111854 75.077859,48.9424071 77.078561,50.2959971 C80.7280828,52.7578012 83.6859046,55.8772932 85.8333918,59.7349242 C86.8588773,61.5752434 87.552588,63.5322168 87.8682767,65.6259571 C88.3548796,68.8701483 87.5003084,71.6738696 85.1879392,74.0029294" id="Fill-52" fill="#FFDD00"></path>
            <path d="M76.6261367,61.645608 C75.8726727,58.9126509 74.1513122,57.1529411 71.4620554,56.3035616 C70.7420349,56.0754874 70.0003745,55.9457211 69.2567467,55.8120225 C66.8252022,55.377502 64.3798867,55.0648832 61.9070294,55 C61.1338927,55.0393231 60.3587887,55.0530862 59.5895864,55.1219017 C58.3384033,55.2280741 57.1029583,55.4384528 55.9363678,55.9240934 C53.3985906,56.9858178 51.734281,58.9008539 50.6837593,61.3919738 C50.0404623,62.9177111 49.8240627,64.5102976 50.1506294,66.1481057 C50.4221125,67.498855 51.0791804,68.6608534 51.9664187,69.6970177 C53.459576,71.4370659 55.3029071,72.6934397 57.4118196,73.5605146 C60.5102684,74.8286854 63.7287206,75.2474767 67.0494708,74.86211 C68.4973809,74.6930206 69.9138146,74.358774 71.2417213,73.7296041 C75.6562731,71.63958 77.9520761,66.4528599 76.6261367,61.645608" id="Fill-54" fill="#FFFFFF"></path>
            <path d="M72.3082907,71.3502076 C71.131782,72.5234002 69.676001,73.1903929 68.071671,73.5576359 C66.6396579,73.8871621 65.1838769,74.0539103 63.716212,73.9844319 C60.9809283,73.8554006 58.3625032,73.253916 55.9500662,71.9020647 C54.626989,71.1596382 53.4564223,70.2246573 52.4918436,69.0494796 C51.040024,67.2767876 50.6280478,65.2857349 51.3430641,63.0961724 C52.0323318,60.9879989 53.2841054,59.3046363 55.2013788,58.1632052 C56.0411763,57.6629607 56.9819871,57.4406297 57.9327012,57.2599859 C59.6598318,56.936415 61.4087496,56.9681766 63.1457835,57.0714016 C65.4374006,57.2063882 67.7092112,57.5557654 69.9532926,58.0540249 C71.028788,58.2922366 72.0290184,58.7309431 72.8826805,59.463444 C74.025518,60.4440822 74.5543528,61.7482912 74.8573929,63.1775614 C74.9782128,63.7472843 74.9861354,64.3209775 75,64.8986409 C74.9900967,67.4216997 74.0869183,69.5735454 72.3082907,71.3502076" id="Fill-56" fill="#BC0924"></path>
        </g>
    </g>
</svg>