<?xml version="1.0" encoding="UTF-8"?>
<svg width="156px" height="48px" viewBox="0 0 156 48" version="1.1" xmlns="http://www.w3.org/2000/svg" xmlns:xlink="http://www.w3.org/1999/xlink">
    <!-- Generator: Sketch 48.2 (47327) - http://www.bohemiancoding.com/sketch -->
    <title>logo blanco</title>
    <desc>Created with Sketch.</desc>
    <defs>
        <polygon id="path-1" points="0.149040118 0 2.6916298 0 2.6916298 11.8892257 0.149040118 11.8892257 0.149040118 0"></polygon>
    </defs>
    <g id="Footer-mobile" stroke="none" stroke-width="1" fill="none" fill-rule="evenodd" transform="translate(-24.000000, -24.000000)">
        <g id="logo-blanco" transform="translate(24.000000, 24.000000)">
            <path d="M112.902,22.1268 C112.718,22.0818 112.377,22.2038 112.328,21.8898 C112.286,21.6218 112.586,21.5018 112.802,21.4048 C113.21,21.2228 113.64,21.1288 114.087,21.2428 C114.407,21.3238 114.455,21.5008 114.209,21.7148 C113.847,22.0278 113.409,22.1288 112.902,22.1268" id="Fill-1" fill="#FFFFFF"></path>
            <path d="M113.0572,29.5067 C113.1672,29.6457 113.1552,29.8057 113.1392,29.9677 C113.0172,29.8297 113.0392,29.6677 113.0572,29.5067" id="Fill-3" fill="#FFFFFF"></path>
            <path d="M112.9781,29.5126 C112.9771,29.4546 112.9341,29.3656 113.0291,29.3656 C113.0791,29.3646 113.0721,29.4526 113.0571,29.5076 L113.0181,29.5156 L112.9781,29.5126 Z" id="Fill-5" fill="#FFFFFF"></path>
            <path d="M145.8512,33.2714 C145.2562,33.9614 144.6422,33.9984 143.9532,33.3904 C143.1902,32.7184 142.7302,31.8504 142.4012,30.9044 C142.2442,30.4534 142.1332,30.0074 142.2972,29.5264 C142.3732,29.3024 142.3822,29.0564 142.4212,28.8204 C142.4612,28.8274 142.4992,28.8224 142.5172,28.8384 C143.4762,29.7384 144.6412,29.7944 145.8522,29.6534 C146.1232,29.6224 146.3922,29.5624 146.6602,29.5054 C146.8222,29.4714 146.9282,29.4934 146.9302,29.6884 C146.9442,30.9964 146.7372,32.2414 145.8512,33.2714 M144.3332,26.7814 C145.2492,26.5884 146.1612,27.0814 146.5622,28.0264 C145.9772,28.1694 145.4172,28.2924 144.8392,28.1424 C144.5102,28.0574 144.2122,27.9104 144.0042,27.6304 C143.7242,27.2514 143.8732,26.8774 144.3332,26.7814 M155.4442,22.8254 C154.9822,22.5194 154.0952,22.7294 153.8192,23.2104 C153.7732,23.2914 153.7232,23.3754 153.7382,23.4674 C153.7802,23.7294 153.6232,23.8944 153.4702,24.0664 C153.2362,24.3294 152.9732,24.5584 152.6982,24.7764 C151.6202,25.6314 150.4562,26.3494 149.2202,26.9524 C148.9782,27.0704 148.7442,27.2104 148.4662,27.2854 C148.3852,27.1474 148.3112,27.0154 148.2322,26.8864 C147.8982,26.3414 147.4542,25.9114 146.8742,25.6334 C145.7712,25.1054 144.6452,25.0644 143.5152,25.5364 C142.9102,25.7884 142.3962,26.1704 142.1152,26.7834 C142.0032,27.0234 141.9032,27.0724 141.6402,27.0204 C140.9512,26.8834 140.4662,27.2184 140.2702,27.8964 C140.1242,28.3994 140.0402,28.9194 140.1042,29.4314 C140.1982,30.1874 140.0152,30.8764 139.7502,31.5634 C139.6522,31.8184 139.5642,32.0784 139.4582,32.3314 C138.9842,33.4744 138.4122,34.5634 137.6322,35.5324 C137.3642,35.8654 137.0692,36.1744 136.7002,36.3984 C136.4592,36.5444 136.3642,36.5134 136.2152,36.2774 C136.0112,35.9504 135.8982,35.5864 135.8172,35.2134 C135.4602,33.5854 135.3292,31.9324 135.2832,30.2714 C135.2102,27.6494 135.4182,25.0354 135.5452,22.4184 C135.5572,22.1724 135.6642,22.1264 135.8752,22.0934 C137.1682,21.8914 138.4502,21.6304 139.6922,21.2064 C139.9102,21.1314 140.1202,21.0454 140.3102,20.9174 C140.4002,20.8584 140.5032,20.7924 140.4842,20.6714 C140.4602,20.5254 140.3182,20.4984 140.2032,20.4834 C140.0692,20.4664 139.9282,20.4734 139.7952,20.4984 C139.6172,20.5314 139.4392,20.5804 139.2672,20.6394 C138.5332,20.8944 137.7842,21.0924 137.0212,21.2374 C136.5672,21.3244 136.1132,21.4234 135.6642,21.4464 C135.6642,20.8464 135.6602,20.2854 135.6652,19.7234 C135.6712,19.2824 135.6942,18.8404 135.7022,18.3994 C135.7062,18.1064 135.6132,17.8644 135.3332,17.7174 C134.6002,17.3344 133.7212,17.8454 133.7042,18.6614 C133.6832,19.5894 133.6472,20.5184 133.6302,21.4484 C133.6262,21.6544 133.5692,21.7404 133.3492,21.7594 C132.9252,21.7954 132.5022,21.8594 132.0822,21.9294 C131.5592,22.0174 131.0202,22.0474 130.5332,22.2874 C130.3572,22.3744 130.1302,22.4864 130.1942,22.7084 C130.2442,22.8854 130.4802,22.8334 130.6442,22.8344 C130.7652,22.8354 130.8882,22.8274 131.0082,22.8074 C131.4442,22.7404 131.8762,22.6464 132.3152,22.5994 C132.7282,22.5554 133.1372,22.4144 133.5052,22.4734 C133.5052,23.0594 133.5322,23.6074 133.5002,24.1524 C133.3762,26.3434 133.3062,28.5354 133.3462,30.7304 C133.3732,32.2094 133.4942,33.6804 133.7252,35.1414 C133.8322,35.8194 134.0062,36.4794 134.3592,37.0814 C134.7142,37.6874 135.2472,37.9864 135.9372,38.0064 C136.8072,38.0334 137.5842,37.7614 138.2702,37.2304 C138.6952,36.9024 139.0542,36.5084 139.3762,36.0824 C139.9932,35.2644 140.5062,34.3854 140.9552,33.4654 C141.0092,33.3534 141.0162,33.1964 141.1732,33.1434 C141.3302,33.3524 141.4792,33.5634 141.6412,33.7644 C142.0762,34.3054 142.5942,34.7524 143.2282,35.0424 C144.5312,35.6404 145.7432,35.4964 146.8412,34.5544 C147.2972,34.1634 147.6622,33.6954 147.9572,33.1754 C148.6662,31.9284 149.0342,30.5944 148.9052,29.1524 C148.8802,28.8794 148.9562,28.7484 149.2102,28.6454 C149.8022,28.4044 150.3682,28.1044 150.9222,27.7864 C152.0452,27.1424 153.1432,26.4564 154.1802,25.6794 C154.6572,25.3214 155.0992,24.9254 155.4382,24.4284 C155.6582,24.1064 155.8002,23.7604 155.7542,23.3584 C155.7292,23.1324 155.6352,22.9524 155.4442,22.8254" id="Fill-7" fill="#FFFFFF"></path>
            <path d="M110.9664,30.1571 C110.6244,31.3591 110.0814,32.4541 109.2564,33.3991 C109.0764,33.6041 108.8984,33.8131 108.6234,33.9771 C108.1804,33.5461 108.1254,32.9951 108.0484,32.4531 C108.0204,32.2511 108.0824,32.0241 107.8624,31.8751 C107.8214,31.8471 107.8294,31.7331 107.8304,31.6591 C107.8524,30.1001 108.0044,28.5591 108.4644,27.0611 C108.5714,26.7111 108.7074,26.3731 108.9014,26.0611 C109.0704,25.7901 109.1024,25.7701 109.3704,25.9091 C110.3854,26.4311 111.0314,27.2271 111.1384,28.3941 C111.1934,28.9901 111.1304,29.5781 110.9664,30.1571 M115.7524,33.1611 C115.3974,31.0771 114.9324,29.0101 114.8844,26.8841 C114.8804,26.6921 114.7964,26.5941 114.6144,26.5931 C113.9834,26.5861 113.3794,26.6741 112.9004,27.1491 C112.7834,27.0201 112.7514,26.8501 112.6804,26.7011 C111.5804,24.3991 108.5034,24.3381 107.1874,26.1541 C106.8714,26.5901 106.6364,27.0611 106.4684,27.5711 C106.4214,27.7121 106.4174,27.8761 106.2714,27.9691 C106.1064,28.0741 106.0454,28.2481 105.9784,28.4191 C105.8034,28.8571 105.6654,29.3061 105.5514,29.7651 C105.3944,30.3961 105.3134,31.0401 105.2404,31.7501 C104.9494,31.5501 104.7044,31.3821 104.4584,31.2141 C103.6544,30.6651 102.8134,30.1691 102.0504,29.5591 C101.7294,29.3031 101.4084,29.0421 101.1584,28.7121 C100.6924,28.0941 100.8284,27.5611 101.5384,27.2481 C101.9164,27.0811 102.3214,27.0071 102.7294,26.9451 C103.1044,26.8871 103.4844,26.8461 103.8474,26.7271 C104.0344,26.6661 104.2204,26.5941 104.3624,26.4471 C104.4294,26.3801 104.4844,26.3071 104.4474,26.2061 C104.4164,26.1171 104.3294,26.1141 104.2584,26.1111 C104.0914,26.1051 103.9214,26.0941 103.7574,26.1191 C102.5984,26.2981 101.4534,26.5381 100.3674,27.0021 C100.0584,27.1341 99.7634,27.2901 99.4974,27.4981 C98.8364,28.0141 98.7474,28.5961 99.2214,29.2851 C99.4754,29.6541 99.8054,29.9471 100.1584,30.2131 C100.8164,30.7081 101.5074,31.1531 102.1934,31.6061 C102.5224,31.8241 102.8604,32.0291 103.1704,32.3031 C102.5794,32.8921 101.9424,33.2211 101.0724,32.9881 C100.4624,32.8231 99.9124,33.1101 99.4064,33.4341 C99.2374,33.5441 99.2574,33.6441 99.4364,33.7241 C99.5194,33.7611 99.6084,33.7841 99.6954,33.8071 C100.3574,33.9801 101.0244,33.9801 101.6884,33.8491 C102.9134,33.6071 103.9664,33.0201 104.9084,32.2171 C104.9924,32.1451 105.0494,32.0141 105.2104,32.0431 C105.1264,34.6001 105.4934,37.1141 105.9094,39.6241 C106.0704,40.5841 106.2694,41.5411 106.3674,42.5081 C106.5254,44.0521 106.7524,45.5901 106.8254,47.1411 C106.8344,47.3271 106.9034,47.4251 107.0914,47.4361 C107.5894,47.4671 108.0614,47.3761 108.5014,47.1371 C108.6884,47.0361 108.7924,46.8871 108.7824,46.6581 C108.7604,46.1111 108.7624,45.5621 108.7144,45.0151 C108.6204,43.9381 108.4404,42.8721 108.3254,41.7991 C108.0994,39.6641 107.9594,37.5201 107.8654,35.3761 C107.8504,35.0081 107.7524,34.9641 108.2664,34.9071 C108.3714,34.8951 108.4754,34.8661 108.5774,34.8381 C109.8484,34.4831 110.8264,33.7231 111.5904,32.6661 C112.2784,31.7141 112.7174,30.6531 112.9784,29.5121 C113.0124,29.4701 113.0034,29.4111 113.0294,29.3651 C113.0074,29.4191 113.0084,29.4681 113.0574,29.5081 L113.0574,29.5071 C113.1614,29.6461 113.0484,29.8251 113.1394,29.9681 C113.3724,31.6241 113.7994,33.2501 113.9254,34.9241 C113.9474,35.2241 113.9874,35.2551 114.2894,35.2641 C114.7384,35.2781 115.1654,35.1751 115.5684,34.9771 C115.7914,34.8681 115.9074,34.7001 115.8934,34.4311 C115.8704,34.0051 115.8234,33.5811 115.7524,33.1611" id="Fill-9" fill="#FFFFFF"></path>
            <path d="M88.2926,30.7509 C88.2096,31.3299 88.0446,31.8839 87.7906,32.4029 C86.9376,34.1469 85.8906,35.7659 84.5766,37.2019 C84.4576,37.3329 84.3576,37.4959 84.1686,37.5489 C84.1116,37.4889 84.1166,37.4279 84.1626,37.3649 C84.1746,37.2909 84.2226,37.1929 84.1916,37.1449 C83.9016,36.6749 83.9606,36.1409 83.9226,35.6349 C83.8276,34.3749 83.7636,33.1119 83.7276,31.8499 C83.6716,29.9149 83.4786,27.9929 83.2876,26.0689 C83.1606,24.7979 83.0276,23.5249 82.9746,22.2479 C82.9696,22.1119 82.9746,21.9769 82.9746,21.8179 C83.3066,21.7629 83.6056,21.8629 83.8966,21.9729 C84.5506,22.2169 85.0956,22.6279 85.5826,23.1179 C86.7966,24.3359 87.5396,25.8199 87.9956,27.4559 C88.2966,28.5319 88.4516,29.6279 88.2926,30.7509 M88.1996,23.2999 C87.8616,22.8259 87.4546,22.4139 86.9946,22.0579 C86.2086,21.4479 85.3396,21.0379 84.3356,20.9459 C83.8796,20.9039 83.4266,20.9449 82.9776,21.0059 C82.8876,20.8369 82.9176,20.6809 82.9096,20.5319 C82.8986,20.3239 82.7976,20.1789 82.6086,20.1159 C82.1466,19.9629 81.7106,20.0669 81.2916,20.2899 C80.9226,20.4859 80.9426,20.8229 80.9576,21.1639 C80.9676,21.3889 81.0046,21.6199 80.7606,21.7719 C80.6746,21.8259 80.6676,21.9599 80.7676,21.9999 C81.0136,22.0989 80.9796,22.3019 80.9926,22.4939 C81.0776,23.7089 81.1716,24.9239 81.2956,26.1359 C81.4686,27.8319 81.6746,29.5249 81.7186,31.2329 C81.7536,32.6339 81.8026,34.0359 81.9066,35.4329 C81.9696,36.2569 81.8956,37.1109 82.2746,37.8919 C82.2866,37.9169 82.2996,37.9559 82.2886,37.9769 C82.1386,38.2649 82.3866,38.3579 82.5466,38.4679 C82.9276,38.7279 83.3606,38.6939 83.7836,38.6139 C84.6276,38.4519 85.3696,38.0739 85.9766,37.4659 C87.7296,35.7099 89.1256,33.7169 89.9736,31.3669 C90.2716,30.5419 90.4026,29.6909 90.3256,28.8099 C90.1476,26.7669 89.3796,24.9529 88.1996,23.2999" id="Fill-11" fill="#FFFFFF"></path>
            <path d="M84.1627,37.3651 C84.1647,37.4271 84.1667,37.4871 84.1687,37.5491 C84.0407,37.5111 84.0407,37.4921 84.1627,37.3651" id="Fill-13" fill="#FFFFFF"></path>
            <path d="M119.4303,27.4022 C119.5453,26.8622 119.8803,26.4482 120.2483,26.0602 C120.5943,25.6962 120.9533,25.3462 121.4083,25.1182 C121.7483,24.9462 121.9113,24.9832 122.0733,25.3122 C122.5943,26.3812 122.2273,27.9292 120.7223,28.2182 C120.5143,28.2582 120.3003,28.2642 120.1293,28.2822 C119.0793,28.2002 119.2293,28.3432 119.4303,27.4022 M132.2033,24.7742 C131.4913,24.8502 130.7903,24.9892 130.1193,25.2512 C129.2693,25.5832 128.5373,26.0872 127.8953,26.8372 C127.8863,26.7242 127.8773,26.6932 127.8823,26.6652 C128.0183,25.8292 127.9893,24.9962 127.8583,24.1642 C127.8003,23.7982 127.7183,23.7312 127.3473,23.7272 C127.0383,23.7252 126.7493,23.8142 126.4583,23.9112 C126.0343,24.0522 125.8273,24.3302 125.7703,24.7732 C125.6583,25.6382 125.6193,26.5012 125.7353,27.3682 C125.7653,27.5922 125.7983,27.8172 125.7253,28.0462 C125.3463,29.2312 124.6733,30.2002 123.6323,30.8962 C123.0153,31.3092 122.3323,31.4802 121.5943,31.4222 C120.4923,31.3362 119.5603,30.5132 119.3563,29.4542 C119.3033,29.1822 119.3033,29.1722 119.5873,29.1632 C119.9533,29.1512 120.3173,29.1162 120.6763,29.0482 C121.5543,28.8852 122.3823,28.5992 123.0943,28.0392 C123.5703,27.6652 123.9393,27.2072 124.1433,26.6302 C124.6813,25.1102 123.7283,23.9042 122.1363,24.0892 C120.3173,24.2992 118.3243,25.7982 117.6273,27.4882 C117.5373,27.7062 117.4553,27.8872 117.1833,27.9372 C116.8833,27.9922 116.6033,28.1252 116.3703,28.3312 C116.2053,28.4762 116.2163,28.5912 116.4123,28.6762 C116.6203,28.7662 116.8423,28.8282 117.0603,28.8942 C117.2053,28.9382 117.2893,29.0012 117.2843,29.1782 C117.2743,29.4672 117.3263,29.7562 117.4033,30.0352 C117.7593,31.3332 118.8853,32.2512 120.3203,32.3432 C122.5083,32.4862 124.4233,31.8022 126.0583,30.3372 C126.1293,30.2732 126.1693,30.1532 126.2973,30.1722 C126.3663,30.2482 126.3793,30.3392 126.4063,30.4262 C126.7063,31.4152 127.0053,32.4052 127.3123,33.3922 C127.4233,33.7522 127.5013,33.8002 127.8633,33.8122 C128.2043,33.8232 128.5283,33.7372 128.8363,33.6032 C129.3313,33.3882 129.3893,33.2522 129.2373,32.7212 C129.2113,32.6342 129.1823,32.5482 129.1573,32.4602 C128.8083,31.2762 128.6783,30.0762 128.8703,28.8492 C128.9833,28.1342 129.2023,27.4592 129.6163,26.8582 C130.0983,26.1562 130.7403,25.7142 131.6163,25.6612 C131.8743,25.6452 132.1263,25.5802 132.3663,25.4782 C132.7053,25.3352 132.9493,25.0892 132.8673,24.9642 C132.7083,24.7222 132.4443,24.7492 132.2033,24.7742" id="Fill-15" fill="#FFFFFF"></path>
            <path d="M93.5475,30.2421 C93.5935,29.8291 93.6955,29.4341 93.8925,29.0681 C94.1265,28.6301 94.4805,28.3841 94.9965,28.4031 C95.2855,28.4141 95.5725,28.4141 95.8425,28.5321 C95.6575,29.6421 94.8775,30.3801 93.7945,30.4891 C93.5915,30.5101 93.5245,30.4571 93.5475,30.2421 M99.1475,31.5281 C98.6365,31.3181 97.6155,31.5731 97.3965,32.1391 C97.2325,32.5601 96.9595,32.9391 96.6825,33.3031 C96.4415,33.6191 96.1705,33.9061 95.8395,34.1321 C95.6015,34.2931 95.3595,34.3161 95.1155,34.1541 C94.9895,34.0701 94.8585,33.9871 94.7505,33.8831 C94.2005,33.3451 93.9115,32.6621 93.6975,31.9401 C93.6565,31.8021 93.7145,31.7401 93.8465,31.7241 C93.9215,31.7161 93.9975,31.7121 94.0725,31.6981 C95.0175,31.5321 95.8905,31.2021 96.6285,30.5721 C97.3565,29.9511 97.7695,29.1591 97.8705,28.2091 C97.9345,27.6231 97.8285,27.4781 97.2705,27.3281 C96.7095,27.1781 96.1385,27.0961 95.5575,27.0781 C95.2985,27.0961 95.0395,27.1061 94.7825,27.1361 C93.0065,27.3361 91.7185,28.6651 91.5695,30.4481 C91.5565,30.6151 91.5445,30.7741 91.4465,30.9251 C91.3315,31.1021 91.3145,31.3141 91.4545,31.4801 C91.6075,31.6581 91.6145,31.8691 91.6555,32.0731 C91.8315,32.9681 92.1555,33.7961 92.7565,34.4951 C93.7715,35.6761 95.2715,35.9681 96.6325,35.2221 C97.9295,34.5131 98.7165,33.3401 99.3805,32.0721 C99.5115,31.8241 99.4075,31.6361 99.1475,31.5281" id="Fill-17" fill="#FFFFFF"></path>
            <path d="M72.2233,17.8075 C70.8553,17.7845 69.6563,17.4305 68.5433,16.7805 C67.2063,15.9975 66.1333,14.9305 65.2353,13.6795 C65.0323,13.3975 65.0473,13.2645 65.3233,13.0745 C65.7083,12.8085 66.1413,12.6805 66.6153,12.6915 C66.8413,12.6965 66.9703,12.8235 67.0903,12.9935 C67.4603,13.5165 67.8693,14.0075 68.3123,14.4715 C68.9673,15.1575 69.6833,15.7695 70.5163,16.2325 C71.2313,16.6295 71.9893,16.8795 72.8163,16.9025 C74.9563,16.9595 75.6613,14.9555 75.1773,13.6285 C74.8773,12.8065 74.3873,12.1245 73.7353,11.5525 C73.1823,11.0685 72.5633,10.6815 71.9333,10.3095 C71.3293,9.9545 70.7243,9.6025 70.1303,9.2315 C69.4953,8.8335 68.9163,8.3645 68.4383,7.7815 C67.3823,6.4955 67.3493,5.0025 68.3453,3.6705 C68.6763,3.2265 69.0793,2.8565 69.5373,2.5475 C71.2803,1.3705 73.1923,0.8205 75.2913,1.1005 C77.5393,1.4005 79.0163,2.9055 79.4333,5.1265 C79.5013,5.4925 79.4383,5.6045 79.1003,5.7905 C78.7453,5.9865 78.3613,6.0715 77.9583,6.0645 C77.6103,6.0575 77.5343,5.9975 77.4673,5.6545 C77.3813,5.2035 77.2503,4.7695 77.0713,4.3475 C75.8353,1.4515 72.1453,1.2725 70.3403,3.3795 C69.3343,4.5545 69.3333,5.9805 70.3443,7.1545 C70.8063,7.6905 71.3583,8.1225 71.9543,8.4945 C72.6533,8.9265 73.3653,9.3375 74.0703,9.7595 C74.7393,10.1595 75.3833,10.5895 75.9393,11.1415 C76.6273,11.8245 77.1013,12.6265 77.2473,13.5955 C77.4003,14.5985 77.0883,15.4595 76.3863,16.1815 C75.6403,16.9475 74.7103,17.3815 73.6863,17.6265 C73.1823,17.7475 72.6663,17.8035 72.2233,17.8075" id="Fill-19" fill="#FFFFFF"></path>
            <path d="M88.6686,11.9647 C88.8286,11.5337 88.9396,11.2037 89.0726,10.8847 C89.2366,10.4907 89.4426,10.1167 89.7056,9.7777 C90.6506,8.5547 91.9086,8.1557 93.3926,8.4327 C94.0906,8.5627 94.6456,8.9637 95.0846,9.5227 C95.5726,10.1437 95.8596,10.8607 96.0796,11.6097 C96.3936,12.6757 96.5926,13.7687 96.8036,14.8587 C96.8876,15.2917 96.9696,15.7277 97.1776,16.1207 C97.2966,16.3467 97.2246,16.5017 97.0446,16.6277 C96.6306,16.9177 96.1696,17.0487 95.6636,16.9897 C95.4096,16.9607 95.2696,16.7917 95.1666,16.5707 C94.8626,15.9137 94.7246,15.2137 94.6176,14.5057 C94.4586,13.4517 94.2506,12.4087 93.8976,11.4007 C93.7456,10.9677 93.5656,10.5487 93.2966,10.1757 C93.0796,9.8747 92.8196,9.6287 92.4636,9.4897 C92.1046,9.3497 91.8086,9.4327 91.5506,9.6987 C91.3146,9.9437 91.1646,10.2427 91.0406,10.5567 C90.6476,11.5557 90.4716,12.6057 90.3266,13.6607 C90.1866,14.6887 90.1106,15.7217 90.1346,16.7587 C90.1426,17.1277 89.9826,17.3667 89.6816,17.5337 C89.3576,17.7147 89.0136,17.8317 88.6366,17.8117 C88.3236,17.7937 88.2016,17.6957 88.1306,17.3867 C87.6356,15.2497 86.9656,13.1667 86.1936,11.1157 C86.0666,10.7767 86.1406,10.5837 86.4496,10.3977 C86.8136,10.1797 87.2076,10.0907 87.6306,10.1207 C87.8856,10.1397 88.0506,10.2547 88.1356,10.5057 C88.2916,10.9617 88.4656,11.4127 88.6686,11.9647" id="Fill-21" fill="#FFFFFF"></path>
            <path d="M90.3463,7.4862 C89.5703,7.5032 88.7993,7.4062 88.0263,7.3522 C87.7223,7.3312 87.4183,7.3172 87.1153,7.3062 C86.9003,7.2992 86.7383,7.3352 86.5913,7.5552 C86.3733,7.8822 85.9923,7.9572 85.6143,7.9212 C85.2993,7.8902 85.2003,7.7182 85.2863,7.4102 C85.3973,7.0212 85.6483,6.7492 86.0053,6.5712 C86.3663,6.3922 86.7523,6.3222 87.1513,6.3022 C87.9443,6.2652 88.7283,6.3772 89.5163,6.4422 C90.3493,6.5102 91.1833,6.5722 92.0153,6.4092 C92.7263,6.2702 93.3363,5.9592 93.7943,5.3882 C94.0793,5.0332 94.4473,4.9572 94.8583,5.0632 C95.1803,5.1462 95.2623,5.3762 95.0743,5.6542 C94.7613,6.1152 94.3443,6.4672 93.8673,6.7482 C93.0623,7.2202 92.1773,7.4182 91.2583,7.4832 C90.9553,7.5042 90.6513,7.4862 90.3463,7.4862" id="Fill-23" fill="#FFFFFF"></path>
            <path d="M101.5865,12.3017 C101.4945,13.3017 101.2365,14.2687 100.7755,15.1727 C100.6805,15.3607 100.5815,15.3677 100.4285,15.2477 C100.2435,15.1047 100.1085,14.9257 99.9995,14.7227 C99.7385,14.2397 99.5855,13.6327 99.5815,12.9637 C99.6495,11.7597 100.0415,10.5937 101.0025,9.6657 C101.2855,9.3917 101.3765,9.4057 101.5695,9.7527 C101.7135,10.0097 101.7925,10.2797 101.7365,10.5807 C101.6335,11.1507 101.6385,11.7297 101.5865,12.3017 M114.7875,7.9887 C114.6075,7.9337 114.4275,7.9547 114.2475,8.0037 C112.8705,8.3747 111.5655,8.9067 110.4225,9.7787 C109.5975,10.4067 108.9445,11.1797 108.5235,12.1367 C108.5005,12.1917 108.4715,12.2417 108.4445,12.2937 C108.3045,11.9927 108.1485,11.7157 108.1885,11.3817 C108.3365,10.1457 108.1075,8.9567 107.6935,7.7967 C107.5855,7.4907 107.5165,7.4477 107.1905,7.4517 C106.8195,7.4567 106.4695,7.5537 106.1295,7.6977 C105.8075,7.8357 105.6445,8.0347 105.6615,8.4307 C105.7135,9.6217 105.8915,10.7917 106.1625,11.9497 C106.1975,12.0997 106.2415,12.2407 106.2025,12.3977 C106.0555,12.9777 105.8465,13.5307 105.4795,14.0097 C105.0955,14.5117 104.8695,14.5417 104.4215,14.0827 C103.7655,13.4107 103.5235,12.5727 103.6075,11.6547 C103.6635,11.0377 103.8055,10.4307 103.8125,9.8067 C103.8155,9.5447 103.8785,9.2857 103.5155,9.2047 C103.4445,9.1897 103.4005,9.0697 103.3415,9.0007 C103.1325,8.7587 102.8635,8.6257 102.5485,8.5947 C102.2745,8.5687 101.9995,8.5687 101.7285,8.6097 C98.9415,9.0287 97.0315,12.0187 97.8155,14.7297 C98.0395,15.4997 98.5475,15.9987 99.3215,16.1657 C100.5855,16.4397 101.6715,16.0917 102.5245,15.1057 C102.6605,14.9477 102.7395,14.8667 102.9625,14.9897 C103.4005,15.2307 103.8875,15.2687 104.3825,15.2107 C105.2325,15.1127 106.0095,14.8367 106.6915,14.3117 C106.7355,14.2787 106.7805,14.2277 106.8685,14.2767 C106.8975,14.3427 106.9335,14.4257 106.9655,14.5097 C107.2295,15.1907 107.5295,15.8557 107.8275,16.5227 C107.9645,16.8257 108.1615,16.9297 108.4705,16.9007 C108.8075,16.8687 109.1265,16.7817 109.4395,16.6547 C109.7725,16.5177 109.9255,16.3147 109.9005,15.9217 C109.8445,14.9937 109.8885,14.0677 110.0645,13.1477 C110.4415,11.1817 111.5015,9.7567 113.3555,8.9537 C113.6615,8.8217 113.9765,8.7077 114.2895,8.5897 C114.4895,8.5137 114.6845,8.4287 114.8575,8.3007 C114.9165,8.2567 114.9825,8.2027 114.9615,8.1147 C114.9415,8.0287 114.8555,8.0087 114.7875,7.9887" id="Fill-25" fill="#FFFFFF"></path>
            <path d="M83.6315,17.1366 C83.4805,17.3066 83.3205,17.4706 83.1735,17.6446 C83.0295,17.8126 82.8985,17.8266 82.7125,17.6896 C82.3075,17.3896 82.0355,16.9926 81.8315,16.5456 C81.5095,15.8386 81.2805,15.0986 81.1185,14.3396 C80.9015,13.3236 80.8275,12.2966 80.9215,11.2496 C81.1525,11.1996 81.3105,11.2806 81.4535,11.3516 C82.7865,12.0176 83.7815,12.9966 84.2145,14.4586 C84.5075,15.4496 84.3275,16.3536 83.6315,17.1366 M81.5495,10.3916 C80.8895,10.3696 80.2355,10.5846 79.5695,10.7396 C79.4065,10.7766 79.2555,10.8566 79.1355,10.9796 C79.0375,11.0816 78.7955,12.0926 78.8595,12.2226 C78.9165,12.3436 78.9025,12.4606 78.9005,12.5776 C78.8895,13.2666 78.9555,13.9476 79.0775,14.6226 C79.2695,15.6786 79.5995,16.6866 80.1795,17.5986 C80.6515,18.3406 81.3235,18.7086 82.2145,18.6636 C82.5215,18.6486 82.8185,18.5946 83.1075,18.4936 C84.1735,18.1236 85.0435,17.4796 85.7265,16.5866 C86.2325,15.9246 86.4085,15.1606 86.2675,14.3436 C85.8925,12.1856 83.7715,10.4036 81.5495,10.3916" id="Fill-27" fill="#FFFFFF"></path>
            <path d="M49.1383,19.1581 C49.1303,18.9651 49.2083,18.8111 49.3543,18.6901 C49.3973,18.6551 49.4453,18.6241 49.4923,18.5941 C51.9993,16.9911 54.6253,15.6251 57.4503,14.6621 C58.4603,14.3171 59.4863,14.0311 60.5323,13.8131 C60.9423,13.7281 61.2423,13.8991 61.3603,14.2841 C61.4753,14.6631 61.3263,14.9391 60.9383,15.0211 C57.0863,15.8391 53.6003,17.5071 50.2923,19.5921 C50.2213,19.6371 50.1523,19.6841 50.0793,19.7271 C49.6683,19.9721 49.2383,19.7721 49.1523,19.2981 C49.1433,19.2521 49.1423,19.2041 49.1383,19.1581" id="Fill-29" fill="#FFFFFF"></path>
            <path d="M16.1207,15.9267 C15.9547,15.9387 15.8197,15.8647 15.7207,15.7267 C15.6877,15.6807 15.6617,15.6307 15.6377,15.5797 C14.6717,13.5947 13.4407,11.7747 12.1177,10.0147 C11.0997,8.6607 10.0647,7.3197 9.0377,5.9727 C9.0037,5.9277 8.9707,5.8827 8.9367,5.8367 C8.7337,5.5557 8.7597,5.2547 9.0087,5.0067 C9.2307,4.7837 9.5587,4.7717 9.8227,4.9817 C9.8947,5.0387 9.9607,5.1087 10.0167,5.1827 C11.3247,6.9397 12.7057,8.6407 13.9797,10.4217 C14.9557,11.7857 15.8657,13.1897 16.6147,14.6937 C16.6647,14.7927 16.7157,14.8937 16.7607,14.9957 C16.9797,15.4957 16.4897,15.9357 16.1207,15.9267" id="Fill-31" fill="#FFFFFF"></path>
            <path d="M49.2633,5.5517 C49.2673,5.7337 49.1683,5.8697 49.0683,6.0067 C48.3843,6.9337 47.7033,7.8627 47.0153,8.7857 C45.5283,10.7837 44.0303,12.7747 42.6153,14.8247 C42.3263,15.2447 41.8733,15.2677 41.5633,14.8897 C41.3903,14.6807 41.3673,14.4497 41.4993,14.2117 C41.5443,14.1307 41.6013,14.0547 41.6543,13.9787 C43.2933,11.6037 45.0453,9.3127 46.7623,6.9947 C47.1743,6.4377 47.5823,5.8777 47.9923,5.3197 C48.0433,5.2507 48.0903,5.1807 48.1473,5.1177 C48.3283,4.9167 48.5533,4.8647 48.8093,4.9627 C49.0713,5.0637 49.2613,5.3097 49.2633,5.5517" id="Fill-33" fill="#FFFFFF"></path>
            <g id="Group-37" transform="translate(28.000000, 0.000000)">
                <mask id="mask-2" fill="white">
                    <use xlink:href="#path-1"></use>
                </mask>
                <g id="Clip-36"></g>
                <path d="M2.6598,10.8934 C2.6698,11.0054 2.6808,11.1174 2.6888,11.2294 C2.7138,11.5864 2.5728,11.8044 2.2798,11.8694 C1.9108,11.9504 1.5678,11.7774 1.4538,11.4564 C1.4288,11.3844 1.4198,11.3124 1.4158,11.2374 C1.3448,9.8994 1.2258,8.5654 1.0718,7.2354 C0.9068,5.8024 0.7078,4.3754 0.4878,2.9514 C0.3788,2.2384 0.2718,1.5264 0.1618,0.8144 C0.1448,0.7104 0.1438,0.6104 0.1648,0.5064 C0.2268,0.1904 0.4358,0.0044 0.7428,-0.0006 C1.0878,-0.0046 1.3278,0.1704 1.3828,0.5014 C1.5138,1.2954 1.6378,2.0904 1.7538,2.8874 C1.9198,4.0364 2.0878,5.1844 2.2328,6.3354 C2.3518,7.2734 2.4438,8.2144 2.5368,9.1564 C2.5938,9.7334 2.6278,10.3134 2.6728,10.8924 C2.6678,10.8924 2.6638,10.8934 2.6598,10.8934" id="Fill-35" fill="#FFFFFF" mask="url(#mask-2)"></path>
            </g>
            <g id="Group-40" transform="translate(0.000000, 16.000000)" fill="#FFFFFF">
                <path d="M7.3492,4.8622 C6.1232,4.8042 4.9312,4.4782 3.7762,3.9942 C2.5552,3.4822 1.4242,2.8082 0.3272,2.0732 C-0.1048,1.7842 -0.0628,1.2512 0.1862,0.9752 C0.3652,0.7792 0.5832,0.7372 0.8172,0.8642 C0.9072,0.9132 0.9902,0.9742 1.0762,1.0322 C2.2022,1.7922 3.3662,2.4822 4.6402,2.9702 C5.5722,3.3282 6.5302,3.5682 7.5332,3.5782 C7.9722,3.5832 8.2762,3.9242 8.1462,4.4582 C8.0872,4.6962 7.9112,4.8362 7.6612,4.8612 C7.5692,4.8702 7.4752,4.8622 7.3492,4.8622" id="Fill-38"></path>
            </g>
            <path d="M50.8775,37.5927 C50.5095,38.6807 49.9115,39.6357 49.1675,40.5047 C47.4995,42.4527 45.4495,43.8897 43.1455,44.9777 C41.5805,45.7157 39.9425,46.2297 38.2335,46.5187 C37.2005,46.6937 36.1635,46.8277 35.1195,46.9127 C34.1775,46.9887 33.2345,47.0447 32.2905,47.0827 C31.2325,47.1257 30.1765,47.1557 29.1185,47.1967 C28.2465,47.2297 27.3835,47.1507 26.5175,47.0827 C25.6675,47.0157 24.8265,46.8917 23.9905,46.7317 C22.9815,46.5377 22.0295,46.1837 21.1145,45.7177 C20.0335,45.1667 19.0335,44.4927 18.1105,43.7057 C17.2465,42.9687 16.4735,42.1437 15.7785,41.2417 C14.5885,39.6987 13.6895,38.0027 13.0855,36.1537 C12.7665,35.1727 12.5425,34.1707 12.4255,33.1447 C12.3575,32.5577 12.3115,31.9717 12.3185,31.3797 C12.3275,29.2117 12.7855,27.1487 13.7785,25.2127 C14.5215,23.7687 15.5425,22.5487 16.7715,21.4927 C17.8435,20.5707 19.0285,19.8247 20.3015,19.2157 C21.8455,18.4777 23.4615,17.9547 25.1365,17.6047 C25.9145,17.4427 26.6985,17.3167 27.4885,17.2297 C28.7655,17.0887 30.0495,17.0527 31.3315,17.1157 C33.0445,17.2017 34.7355,17.4517 36.3955,17.8917 C38.6735,18.4947 40.8205,19.4047 42.8265,20.6437 C44.3005,21.5537 45.6485,22.6197 46.8385,23.8797 C47.8855,24.9877 48.7825,26.2047 49.4955,27.5567 C50.1715,28.8387 50.6915,30.1787 51.0235,31.5887 C51.2115,32.3907 51.3245,33.2027 51.3605,34.0297 C51.4145,35.2497 51.2685,36.4367 50.8775,37.5927 M51.9975,32.4007 C51.6555,30.3277 50.9215,28.3937 49.8645,26.5827 C48.4915,24.2317 46.6445,22.3127 44.4245,20.7517 C40.5065,17.9967 36.1295,16.5697 31.3615,16.3267 C28.8015,16.1967 26.2735,16.4497 23.7905,17.1047 C21.6025,17.6797 19.5375,18.5387 17.6585,19.8137 C13.9085,22.3567 11.8845,25.9037 11.5545,30.4127 C11.4495,31.8297 11.5565,33.2397 11.8635,34.6307 C12.8385,39.0397 15.1385,42.5887 18.7995,45.2387 C20.0335,46.1327 21.3715,46.8457 22.8455,47.2667 C24.3935,47.7087 25.9865,47.8557 27.5855,47.9697 C28.5145,48.0347 29.4395,47.9777 30.4115,47.9557 C31.4885,47.9057 32.6125,47.8807 33.7345,47.8127 C35.1755,47.7257 36.6085,47.5907 38.0345,47.3627 C40.1675,47.0207 42.1985,46.3697 44.1205,45.3847 C46.2685,44.2847 48.1795,42.8777 49.7575,41.0377 C50.4635,40.2147 51.0525,39.3207 51.4585,38.3097 C52.2275,36.3937 52.3285,34.4137 51.9975,32.4007" id="Fill-41" fill="#FFFFFF"></path>
            <path d="M45.7594,39.0741 C44.5204,40.5071 42.9764,41.5091 41.2074,42.1701 C39.6154,42.7641 37.9714,43.1621 36.3044,43.4751 C35.3384,43.6581 34.3664,43.8011 33.3894,43.9041 C32.7664,43.9701 32.1384,44.0291 31.5124,44.0151 C30.9134,44.0021 30.3164,43.9331 29.7234,43.8521 C28.1134,43.6331 26.5434,43.2491 25.0194,42.6871 C23.2384,42.0301 21.5294,41.2291 19.9764,40.1221 C18.9254,39.3731 17.9774,38.5141 17.1864,37.4891 C16.1464,36.1401 15.4994,34.6311 15.2864,32.9321 C15.1054,31.4901 15.2074,30.0761 15.6184,28.6821 C16.0204,27.3211 16.7744,26.1731 17.7454,25.1571 C18.9194,23.9281 20.3114,23.0071 21.8334,22.2731 C23.6314,21.4071 25.5194,20.8081 27.4744,20.4241 C29.0674,20.1091 30.6754,19.9421 32.3484,19.9531 C33.7594,19.9331 35.1984,20.0761 36.6134,20.4421 C38.2964,20.8771 39.8134,21.6591 41.1954,22.6981 C43.5114,24.4391 45.3214,26.6071 46.5974,29.2121 C47.1364,30.3111 47.5224,31.4661 47.6724,32.6831 C47.9704,35.0901 47.3494,37.2341 45.7594,39.0741 M48.0024,30.5561 C47.2234,28.2031 45.8854,26.1861 44.2324,24.3651 C43.5584,23.6231 42.8224,22.9401 42.0304,22.3231 C40.6974,21.2861 39.2504,20.4531 37.6454,19.9131 C36.0614,19.3801 34.4214,19.1861 32.7604,19.1371 C31.9744,19.1131 31.1904,19.1721 30.4054,19.2261 C29.3034,19.3031 28.2134,19.4571 27.1314,19.6801 C24.8264,20.1551 22.6174,20.8971 20.5524,22.0381 C19.2394,22.7631 18.0454,23.6451 17.0274,24.7511 C16.4674,25.3581 15.9674,26.0121 15.5704,26.7401 C14.7534,28.2371 14.4134,29.8501 14.3984,31.5421 C14.3914,32.0771 14.4394,32.6061 14.5074,33.1371 C14.7194,34.7771 15.3224,36.2611 16.2764,37.6061 C17.1854,38.8891 18.3224,39.9391 19.6044,40.8411 C20.6564,41.5811 21.7834,42.1901 22.9584,42.7161 C24.1554,43.2511 25.3844,43.7021 26.6534,44.0431 C27.7004,44.3251 28.7614,44.5421 29.8414,44.6671 C30.5484,44.7481 31.2534,44.8351 31.9654,44.8131 C32.1524,44.8071 32.3384,44.7761 32.5254,44.7721 C33.0404,44.7621 33.5514,44.6961 34.0614,44.6361 C34.9504,44.5271 35.8364,44.3821 36.7174,44.2111 C38.4084,43.8811 40.0754,43.4651 41.6874,42.8441 C43.1744,42.2711 44.4974,41.4351 45.6564,40.3461 C46.5824,39.4781 47.3124,38.4671 47.8254,37.3011 C48.2254,36.3921 48.4514,35.4391 48.5234,34.4541 C48.6194,33.1221 48.4214,31.8221 48.0024,30.5561" id="Fill-43" fill="#FFFFFF"></path>
            <path d="M42.5533,37.1542 C41.4383,38.2782 40.1273,39.0822 38.6023,39.5332 C37.1913,39.9512 35.7503,40.2282 34.3053,40.4992 C33.0773,40.7282 31.8603,40.6262 30.6433,40.4772 C29.0483,40.2842 27.4963,39.9042 26.0003,39.3092 C24.5533,38.7342 23.2163,37.9752 22.0413,36.9442 C21.1263,36.1402 20.3833,35.2152 19.9723,34.0522 C19.1283,31.6692 19.6113,28.9572 21.8623,27.0682 C22.9733,26.1352 24.2393,25.4772 25.5903,24.9742 C26.9023,24.4862 28.2573,24.1702 29.6383,23.9562 C30.5663,23.8132 31.4963,23.7242 32.4353,23.7302 C33.3843,23.7202 34.3233,23.8092 35.2543,23.9952 C36.4373,24.2312 37.5253,24.6952 38.5203,25.3672 C40.3353,26.5922 41.8063,28.1432 42.8743,30.0612 C43.3843,30.9752 43.7303,31.9482 43.8863,32.9902 C44.1283,34.6022 43.7033,35.9962 42.5533,37.1542 M44.6953,32.9622 C44.5173,31.6832 44.0713,30.5002 43.4193,29.3902 C42.5023,27.8282 41.3003,26.5152 39.9023,25.3762 C38.0713,23.8822 35.9643,23.0952 33.6143,22.9632 C32.3793,22.8932 31.1453,22.9312 29.9163,23.1062 C28.5523,23.3012 27.2083,23.5822 25.9013,24.0172 C24.2813,24.5562 22.7563,25.2852 21.4353,26.3832 C19.7263,27.8022 18.7953,29.6062 18.7843,31.8502 C18.7943,32.1242 18.8033,32.3932 18.8323,32.6652 C18.9783,33.9712 19.4453,35.1482 20.2383,36.1932 C20.9073,37.0752 21.7343,37.7912 22.6363,38.4232 C24.3083,39.5922 26.1653,40.3422 28.1353,40.8272 C29.1713,41.0832 30.2223,41.2602 31.2873,41.3472 C32.2013,41.4222 33.1103,41.4962 34.0283,41.3472 C35.6263,41.0882 37.2113,40.7732 38.7673,40.3202 C40.5083,39.8132 42.0023,38.9012 43.2443,37.5882 C44.4753,36.2862 44.9413,34.7322 44.6953,32.9622" id="Fill-45" fill="#FFFFFF"></path>
            <path d="M36.4518,35.5536 C35.8578,36.1446 35.1228,36.4816 34.3128,36.6666 C33.5898,36.8326 32.8548,36.9166 32.1138,36.8816 C30.7328,36.8166 29.4108,36.5136 28.1928,35.8316 C27.5248,35.4576 26.9338,34.9876 26.4468,34.3946 C25.7138,33.5016 25.5058,32.4986 25.8668,31.3966 C26.2148,30.3336 26.8468,29.4856 27.8148,28.9106 C28.2388,28.6596 28.7138,28.5466 29.1938,28.4566 C30.0658,28.2926 30.9488,28.3096 31.8258,28.3616 C32.9828,28.4286 34.1298,28.6056 35.2628,28.8566 C35.8058,28.9766 36.3108,29.1966 36.7418,29.5656 C37.3188,30.0606 37.5858,30.7166 37.7388,31.4376 C37.7998,31.7236 37.8038,32.0126 37.8108,32.3036 C37.8058,33.5746 37.3498,34.6596 36.4518,35.5536 M38.4318,30.8896 C38.0498,29.5006 37.1748,28.6046 35.8078,28.1726 C35.4408,28.0576 35.0638,27.9906 34.6858,27.9226 C33.4508,27.7026 32.2078,27.5436 30.9498,27.5106 C30.5568,27.5306 30.1638,27.5376 29.7718,27.5716 C29.1368,27.6266 28.5088,27.7326 27.9158,27.9806 C26.6258,28.5196 25.7788,29.4946 25.2458,30.7606 C24.9188,31.5376 24.8078,32.3466 24.9738,33.1796 C25.1118,33.8666 25.4458,34.4576 25.8968,34.9856 C26.6558,35.8706 27.5938,36.5096 28.6658,36.9496 C30.2398,37.5956 31.8768,37.8076 33.5638,37.6126 C34.3008,37.5266 35.0198,37.3566 35.6948,37.0356 C37.9388,35.9726 39.1058,33.3346 38.4318,30.8896" id="Fill-47" fill="#FFFFFF"></path>
        </g>
    </g>
</svg>