<?xml version="1.0" encoding="UTF-8"?>
<svg width="251px" height="94px" viewBox="0 0 251 94" version="1.1" xmlns="http://www.w3.org/2000/svg" xmlns:xlink="http://www.w3.org/1999/xlink">
    <!-- Generator: Sketch 48.2 (47327) - http://www.bohemiancoding.com/sketch -->
    <title>tren</title>
    <desc>Created with Sketch.</desc>
    <defs></defs>
    <g id="Symbols" stroke="none" stroke-width="1" fill="none" fill-rule="evenodd">
        <g id="tren" fill="#2E86AB">
            <path d="M178.0027,71.2585 C178.0717,71.3965 178.1417,71.5335 178.2107,71.6715 C179.9867,71.6715 181.7637,71.6925 183.5387,71.6455 C183.7737,71.6395 183.9987,71.2925 184.2297,71.1025 C183.9807,70.8585 183.7377,70.4115 183.4817,70.4025 C181.8917,70.3455 180.2957,70.3515 178.7067,70.4365 C178.4587,70.4495 178.2367,70.9715 178.0027,71.2585 M110.6897,71.4075 C109.4947,70.5925 104.8517,70.3875 101.6047,70.8655 C101.2307,70.9215 100.8867,71.1865 100.5287,71.3545 L100.6347,71.8615 C103.9907,72.2775 107.3337,71.7135 110.6897,71.4075 M28.9717,34.0055 L26.6027,34.0055 L26.6027,40.5485 C27.6347,40.4535 28.6147,40.3635 29.6187,40.2725 C29.4027,38.1825 29.1927,36.1495 28.9717,34.0055 M166.8137,82.5295 C166.8137,82.4725 166.8147,82.4155 166.8147,82.3585 C165.5497,82.3585 164.2747,82.2635 163.0217,82.3845 C161.7257,82.5115 161.3177,83.1645 161.6207,84.4565 C162.2837,87.2885 163.8317,89.4525 166.6017,90.5535 C168.8237,91.4375 172.1027,89.7455 172.7337,87.4415 C172.8197,87.1265 172.8957,86.7575 172.8157,86.4555 C172.5777,85.5565 172.3117,84.6575 171.9617,83.7975 C171.5467,82.7755 170.7747,82.2545 169.6117,82.3685 C168.6837,82.4605 167.7467,82.4785 166.8137,82.5295 M123.5557,80.4675 C122.3707,80.3695 121.2427,80.2685 120.1137,80.1845 C118.9927,80.1025 117.8697,80.0375 116.8687,79.9725 C116.4207,80.7125 115.9967,81.2505 115.7477,81.8605 C115.4267,82.6455 115.0607,83.4815 115.0377,84.3045 C114.9677,86.8875 116.6017,88.6145 118.3737,90.1715 C119.1957,90.8935 120.2717,90.7945 121.2367,90.3745 C122.0927,90.0025 122.9267,89.5605 123.7237,89.0725 C126.1287,87.6015 126.6767,84.3455 124.9167,82.1515 C124.5017,81.6335 124.0827,81.1185 123.5557,80.4675 M3.9337,85.5715 C10.6257,85.9325 16.9187,86.2715 23.2597,86.6135 C23.3097,85.8625 23.3517,85.4015 23.3677,84.9385 C23.3837,84.5155 23.3717,84.0915 23.3717,83.3335 C22.5897,83.9965 22.1067,84.4295 21.5987,84.8305 C21.1217,85.2055 20.5087,85.6965 20.0507,85.0385 C19.7817,84.6525 19.8727,83.9295 19.9827,83.3945 C20.0647,82.9975 20.4377,82.6595 20.6607,82.3225 C19.9537,81.5095 19.3237,81.5685 18.6657,82.1615 C17.7737,82.9665 16.8877,83.7785 15.9727,84.5555 C15.5027,84.9555 14.9177,85.3285 14.3787,84.7565 C13.8407,84.1855 13.9177,83.5505 14.5497,83.0195 C14.9077,82.7185 15.2477,82.3945 15.5847,82.0695 C16.1907,81.4835 16.7867,80.8895 17.3977,80.2895 C15.8477,79.0025 15.8337,78.9845 14.5667,79.9605 C13.9337,80.4485 13.3687,81.0255 12.7587,81.5455 C11.7117,82.4385 10.6527,83.3175 9.5707,84.2255 C8.5967,83.3545 8.3937,82.7375 9.2907,81.9255 C10.8147,80.5485 12.2687,79.0955 13.9647,77.4705 C13.5207,77.0185 13.1687,76.6605 12.7577,76.2425 C9.3847,79.0655 6.7807,82.1825 3.9337,85.5715 M30.4247,90.5875 C33.4687,90.5865 34.5107,89.9385 35.4087,87.8505 C35.6937,87.1875 35.8227,86.4515 35.9817,85.7395 C36.7407,82.3235 35.6467,80.2515 32.4287,78.9825 C30.4787,78.2125 28.5377,78.8375 27.4177,80.5955 C27.1667,80.9885 26.9407,81.4005 26.6647,81.7745 C25.2617,83.6675 24.9597,85.7895 25.9907,87.8315 C27.0117,89.8555 29.0287,90.5105 30.4247,90.5875 M192.7057,80.0325 L192.7057,79.9675 C192.1697,79.9675 191.6337,79.9845 191.0997,79.9645 C189.2337,79.8935 188.2517,80.5625 188.0577,82.3625 C187.9297,83.5375 187.9917,84.7845 188.2407,85.9405 C188.7767,88.4205 190.7817,90.3025 192.9507,90.6035 C194.8347,90.8645 198.2337,89.0495 199.2047,87.2355 C199.3557,86.9545 199.3797,86.6055 199.4607,86.2885 C200.1647,83.5455 197.0207,79.7145 194.1117,80.0255 C193.6487,80.0755 193.1747,80.0325 192.7057,80.0325 M28.4907,32.0305 C29.4747,31.8795 30.8167,31.7855 32.0977,31.4525 C34.4727,30.8345 34.3517,30.1775 34.1167,28.0705 C34.0407,27.3835 33.3727,26.6565 32.7987,26.1455 C29.6657,23.3555 24.9547,23.5465 22.0197,26.5175 C21.1027,27.4455 20.9807,28.7565 21.7857,29.7835 C22.6357,30.8685 23.6937,31.6525 25.1357,31.7625 C26.1347,31.8395 27.1337,31.9225 28.4907,32.0305 M240.2997,79.9875 L240.2997,80.0005 C239.8317,80.0005 239.3627,80.0155 238.8957,79.9975 C237.0277,79.9255 236.5747,80.2235 235.8267,81.8495 C235.2897,83.0165 235.2877,84.1935 235.6677,85.3695 C236.9497,89.3465 241.1907,91.6075 244.4927,91.3175 C246.4027,91.1495 247.4957,90.0785 247.7387,88.1785 C247.9197,86.7705 247.4617,85.5255 246.7407,84.3965 C246.0997,83.3915 245.0557,82.5965 244.5987,81.5335 C243.9827,80.1035 242.9897,79.9085 241.7047,79.9835 C241.2377,80.0105 240.7687,79.9875 240.2997,79.9875 M57.2447,85.6655 C57.1977,84.8175 57.1907,84.3475 57.1417,83.8835 C56.9047,81.6385 55.7277,79.7475 54.1727,78.3525 C52.9597,77.2645 51.0977,78.0335 49.5217,78.1755 C49.3257,78.1935 49.1357,78.2825 48.9437,78.3405 C47.8667,78.6645 47.0237,79.2995 46.5457,80.3215 C45.5127,82.5335 44.9577,84.8625 45.2177,87.3075 C45.2827,87.9205 45.5967,88.6695 46.0517,89.0505 C47.8647,90.5695 49.9447,91.3905 52.3637,90.8135 C53.2067,90.6125 54.0217,90.2925 54.8577,90.0615 C56.1837,89.6955 56.8147,88.7205 57.0747,87.4795 C57.2247,86.7675 57.2147,86.0225 57.2447,85.6655 M15.1947,76.2265 C17.5567,67.9525 17.4597,52.1615 14.8637,48.0685 C12.7467,48.9245 11.4727,50.6405 10.6557,52.6175 C8.1357,58.7145 8.4677,64.7175 11.6007,70.5425 C12.0097,71.3025 12.4477,72.0495 12.9117,72.7785 C13.5777,73.8245 14.2797,74.8495 15.1947,76.2265 M16.7037,46.6315 C17.8657,50.3515 18.5757,53.7885 18.8297,57.3385 C19.1307,61.5665 19.0657,65.7565 18.4647,69.9455 C18.0857,72.5835 17.7177,75.2235 17.3197,78.0415 C18.4847,78.7675 19.6427,79.4885 20.8117,80.2175 C25.3367,71.9045 25.5417,53.1855 20.5827,45.1715 C19.4047,45.6145 18.1867,46.0735 16.7037,46.6315 M186.1977,70.7565 C186.1257,72.2605 186.0297,73.5885 186.0107,74.9165 C185.9997,75.6325 186.1207,76.3495 186.1877,77.1165 C190.1957,77.8365 194.1207,77.9605 198.0517,77.9955 C199.6567,78.0105 201.2677,78.0575 202.8667,77.9595 C205.4637,77.8005 208.0517,77.3695 210.6467,77.3475 C215.3937,77.3085 220.1427,77.4875 224.8917,77.5665 C226.0287,77.5855 227.1667,77.5705 228.3057,77.5595 C231.3047,77.5325 234.3097,77.3755 237.3017,77.5025 C240.7707,77.6495 244.2287,78.0575 247.6927,78.3165 C248.0467,78.3425 248.4187,78.1225 248.5517,78.0835 L248.5517,70.8275 C246.0237,70.8275 243.7607,70.8595 241.4967,70.8215 C234.4787,70.7055 227.4447,70.7885 220.4447,70.3485 C216.0967,70.0745 211.7757,70.1485 207.4427,70.1935 C203.8377,70.2305 200.2327,70.3965 196.6287,70.4095 C193.2287,70.4225 189.8237,70.1845 186.1977,70.7565 M100.2817,9.6075 C100.1947,8.4205 99.5957,7.6005 98.6307,7.0105 C96.7397,5.8545 94.7787,4.8625 92.5647,4.4705 C88.7317,3.7925 84.7827,2.7765 80.8947,3.0095 C74.4837,2.7435 57.3407,3.1115 52.9747,5.5925 C51.2347,5.7245 50.1517,8.0255 51.1047,9.5315 C52.4047,11.5885 54.2057,13.0345 56.5677,13.6875 C61.0367,14.9235 65.6057,15.6055 70.2287,15.7905 C78.6137,16.1255 86.9377,15.2975 95.2497,14.2925 C96.1497,14.1835 100.4657,12.0895 100.2817,9.6075 M175.9197,71.1025 C174.8307,71.1805 173.9087,71.3245 172.9917,71.2985 C169.6547,71.2025 166.3177,71.0735 162.9837,70.9075 C161.3167,70.8235 159.6587,70.5715 157.9917,70.4985 C148.5557,70.0895 139.1487,70.7295 129.7387,71.3195 C125.2077,71.6035 120.6677,71.7575 116.1307,71.9545 C115.2197,71.9935 114.3057,71.9595 113.5007,71.9595 L113.5007,78.2255 C114.8427,78.2255 115.9737,78.1715 117.0977,78.2345 C122.0887,78.5175 127.0777,78.8415 132.0687,79.1365 C134.2527,79.2655 136.4427,79.3015 138.6197,79.4925 C141.2737,79.7255 143.9087,80.2355 146.5637,80.3445 C151.5647,80.5505 156.5727,80.5525 161.5777,80.6455 C163.7097,80.6845 165.8417,80.7935 167.9717,80.7685 C170.2917,80.7405 172.6097,80.5935 175.0977,80.4925 C175.3897,77.2485 176.0557,74.2015 175.9197,71.1025 M67.2247,74.5895 C67.5457,77.8105 67.9137,80.5205 69.2117,83.0065 C69.3337,83.2395 69.5087,83.4485 69.6757,83.6555 C72.3537,86.9595 75.8787,88.8545 79.9617,89.7975 C80.6057,89.9455 81.2907,90.0885 81.9377,90.0255 C85.8917,89.6405 89.7637,88.8735 93.2017,86.7645 C95.4137,85.4075 97.1917,83.6255 97.7207,80.9135 C98.0777,79.0765 98.5057,77.2535 98.8357,75.4115 C98.9507,74.7635 98.9597,74.0655 98.8567,73.4145 C98.3427,70.1385 97.2337,67.0385 95.4457,64.2685 C93.8097,61.7315 91.8267,59.4785 88.6627,58.6715 C87.5767,58.3945 86.5617,57.8285 85.5297,57.3585 C84.3427,56.8155 83.1257,56.4745 81.8367,56.8735 C80.3757,57.3255 78.8827,57.7315 77.4987,58.3635 C75.5447,59.2555 73.8417,60.4865 72.4517,62.2205 C70.5287,64.6185 69.4537,67.4215 68.3267,70.1895 C67.7077,71.7115 67.5087,73.4045 67.2247,74.5895 M52.5317,75.5645 C53.1777,70.0215 52.3777,44.9515 51.4527,42.3635 C49.9997,42.3635 48.4797,42.3625 46.9587,42.3635 C44.4827,42.3665 42.0087,42.3595 39.5327,42.3805 C36.6027,42.4045 33.6547,42.6555 30.7447,42.4305 C28.3787,42.2475 26.2467,42.8305 24.0827,43.4925 C23.5507,43.6545 23.0907,44.0545 22.7397,44.2615 C23.4857,46.4415 24.2627,48.3685 24.7967,50.3605 C25.3307,52.3515 25.7097,54.3945 25.9937,56.4365 C26.2777,58.4785 26.5017,60.5495 26.4907,62.6055 C26.4787,64.7315 26.2107,66.8625 25.9437,68.9765 C25.6867,71.0295 25.3517,73.0785 24.9357,75.1065 C24.5337,77.0685 23.9857,79.0015 23.4807,81.0345 C24.7727,80.8035 24.8157,80.8305 25.4697,79.7845 C26.7657,77.7145 28.6987,76.6855 31.0317,76.8685 C33.4497,77.0585 35.7757,77.7745 37.0467,80.1985 C37.5017,81.0685 38.1277,81.3675 39.1607,81.2735 C40.7167,81.1315 42.2957,81.2365 43.9417,81.2365 C43.9057,81.2895 43.9557,81.2385 43.9797,81.1785 C44.0747,80.9295 44.1527,80.6755 44.2537,80.4285 C45.1977,78.0945 46.7507,76.5825 49.4067,76.3495 C50.4507,76.2575 51.4667,75.8415 52.5317,75.5645 M54.8697,15.6615 C54.6157,19.4405 54.2837,22.8275 54.1917,26.2225 C54.1067,29.4235 54.3947,32.6355 54.2917,35.8365 C54.2007,38.6765 54.4177,41.5065 54.3027,44.3515 C54.1677,47.6835 54.4957,51.0335 54.6257,54.3755 C54.7827,58.4515 54.9987,62.5265 55.0817,66.6035 C55.1317,69.0705 54.9257,71.5425 54.9437,74.0105 C54.9517,74.9055 55.0777,75.9115 55.5057,76.6655 C56.1517,77.8095 57.0967,78.7885 57.9447,79.8125 C58.1427,80.0505 58.4577,80.3425 58.7247,80.3485 C60.9727,80.3965 63.2297,80.5035 65.6137,80.2575 C65.5477,79.1675 65.6057,78.2865 65.4217,77.4585 C64.8537,74.8905 65.0687,72.3905 66.0287,69.9805 C66.7927,68.0605 67.7637,66.2235 68.5727,64.3215 C69.4887,62.1705 70.9057,60.4585 72.7447,59.0335 C75.3917,56.9815 78.3957,55.7985 81.6127,54.9795 C83.4187,54.5195 85.0347,54.7385 86.6487,55.5275 C87.2467,55.8205 87.8287,56.1775 88.4597,56.3675 C91.3627,57.2415 93.7367,58.9075 95.7667,61.1135 C96.0677,61.4425 96.3667,61.7725 96.8917,62.3475 C97.0597,61.0755 97.2947,60.1075 97.2967,59.1385 C97.3067,52.1155 97.2957,45.0925 97.2387,38.0705 C97.1977,32.9195 97.1257,27.7685 96.9687,22.6205 C96.9077,20.6515 97.1667,18.6245 96.3397,16.4915 C82.5667,17.9415 68.7907,19.5045 54.8697,15.6615 M112.8897,69.5605 C115.3737,69.6845 117.6417,69.9015 119.9057,69.8805 C121.9697,69.8625 124.0307,69.5775 126.0937,69.4255 C130.1597,69.1265 134.2257,68.8245 138.2917,68.5485 C141.4887,68.3305 144.6907,67.9465 147.8847,67.9995 C153.2907,68.0895 158.6917,68.4705 164.0967,68.7185 C166.6337,68.8345 169.1707,68.9415 171.7087,69.0185 C173.0347,69.0595 174.3627,69.0265 175.8247,69.0265 C175.8247,68.0405 175.9177,67.1125 175.8097,66.2075 C175.2197,61.3005 174.5237,56.4055 173.9807,51.4945 C173.6727,48.7105 173.6377,45.8965 173.3877,43.1045 C173.1977,40.9805 172.9707,38.8475 172.5607,36.7575 C172.1727,34.7805 170.8017,33.5695 168.7947,33.4005 C166.4687,33.2045 164.1177,33.0685 161.7917,33.1825 C156.9177,33.4215 152.0567,33.9285 147.1827,34.1635 C142.7027,34.3795 138.2497,33.9405 133.7777,33.5315 C128.9397,33.0895 124.0357,32.6525 119.1657,33.4155 C117.7197,33.6425 116.2637,33.9265 114.8787,34.3835 C113.3827,34.8775 112.9847,35.6905 113.0057,37.2595 C113.0257,38.7315 113.0557,40.2085 112.9677,41.6755 C112.8177,44.1455 112.4607,46.6065 112.4057,49.0755 C112.3097,53.4225 112.3197,57.7735 112.3967,62.1215 C112.4387,64.5165 112.7057,66.9075 112.8897,69.5605 M186.2767,68.2945 C187.7657,68.2945 189.0137,68.2805 190.2607,68.2975 C194.0717,68.3475 197.8847,68.5015 201.6937,68.4455 C206.3057,68.3775 210.9137,68.1175 215.5237,67.9805 C216.7257,67.9445 217.9327,68.0175 219.1327,68.1025 C221.9957,68.3055 224.8527,68.6175 227.7187,68.7505 C230.3167,68.8715 232.9237,68.8325 235.5257,68.8295 C239.2727,68.8245 243.0187,68.7985 246.7647,68.7545 C247.3287,68.7485 247.8917,68.5975 248.4207,68.5175 C248.5537,65.7025 248.8397,63.0995 248.7597,60.5085 C248.6397,56.6365 249.3447,52.8055 248.9117,48.9025 C248.5177,45.3415 248.5757,41.7545 247.8857,38.1845 C247.3197,35.2575 245.9667,34.2105 243.0237,33.8285 C240.8487,33.5455 238.6437,33.4225 236.4477,33.3595 C231.5017,33.2175 226.5527,33.1735 221.6057,33.0565 C219.7347,33.0125 217.8677,32.8485 215.9967,32.7905 C212.9247,32.6945 209.8367,32.7895 206.7787,32.5315 C201.8147,32.1135 196.8997,32.4185 192.0017,33.1375 C190.5267,33.3545 189.2547,34.1525 188.2237,35.2755 C187.6587,35.8885 187.3847,36.5415 187.3737,37.4275 C187.3547,39.0265 187.1357,40.6225 186.9837,42.2185 C186.7647,44.5465 186.4237,46.8675 186.3307,49.1995 C186.2117,52.2045 186.2827,55.2165 186.2777,58.2245 C186.2737,61.5645 186.2767,64.9045 186.2767,68.2945 M178.1627,68.2755 L184.1487,68.2755 C184.2767,67.9535 184.4947,67.6555 184.4997,67.3545 C184.5367,65.0845 184.5577,62.8135 184.5307,60.5435 C184.5087,58.5425 184.2807,56.5335 184.3897,54.5415 C184.6257,50.2085 185.0237,45.8835 185.3417,41.5545 C185.3707,41.1585 185.3667,40.7405 185.2747,40.3585 C184.6947,37.9525 185.5747,35.9445 186.8797,34.0095 C188.2017,32.0485 190.3227,31.5755 192.3637,31.0015 C196.0227,29.9725 199.7967,30.1295 203.5377,30.1725 C206.7457,30.2085 209.9497,30.5195 213.1587,30.6015 C218.0407,30.7265 222.9257,30.7495 227.8097,30.8345 C230.8867,30.8885 233.9667,30.9045 237.0387,31.0705 C239.6367,31.2105 242.2537,31.3705 244.8077,31.8315 C247.8717,32.3845 249.2497,33.7885 249.5927,36.4295 C250.1067,40.4055 250.5377,44.3685 250.7267,48.3915 C250.9437,53.0315 250.3967,57.6035 250.3657,62.2065 C250.3517,64.4735 250.6247,66.7415 250.6977,69.0115 C250.7327,70.1255 250.5517,71.2465 250.5717,72.3625 C250.6037,74.1005 250.7597,75.8365 250.7907,77.5745 C250.8037,78.2915 250.7247,79.0405 250.5147,79.7205 C250.2767,80.4855 249.7497,80.9095 248.8117,80.6635 C248.1907,80.5015 247.5087,80.5685 246.5767,80.5175 C247.0507,81.1415 247.3697,81.5395 247.6667,81.9555 C248.7737,83.5075 249.5257,85.2075 249.7277,87.1165 C250.0597,90.2505 247.9397,92.9085 244.7947,93.3305 C240.0797,93.9645 235.3457,90.6895 233.8717,86.1735 C233.1357,83.9155 233.6087,81.9965 234.5647,79.7475 C233.3537,79.6055 232.3247,79.3755 231.2997,79.3835 C227.5557,79.4155 223.8137,79.5495 220.0687,79.6025 C215.1157,79.6725 210.1607,79.6645 205.2077,79.7735 C203.4977,79.8105 201.7937,80.0975 199.8737,80.2925 C201.2387,82.2485 201.3567,84.3555 201.2107,86.5065 C201.1837,86.9045 201.1547,87.3195 201.0237,87.6885 C200.2687,89.7895 195.9517,92.7015 193.7127,92.6485 C189.6717,92.5535 187.3767,90.6085 186.4187,86.5975 C185.8467,84.2025 185.5947,81.8645 187.0127,79.5415 C186.5377,79.4185 186.2277,79.3465 185.9217,79.2575 C184.4207,78.8125 184.2397,78.5835 184.1527,77.0395 C184.0937,75.9875 184.0357,74.9375 183.9717,73.7865 L177.9687,73.7865 C177.7977,74.6825 177.5747,75.5665 177.4787,76.4625 C177.4147,77.0535 177.5437,77.6635 177.5677,78.2655 C177.6707,80.8515 176.6927,82.0585 174.0247,82.5185 C174.1467,83.0155 174.2647,83.5085 174.3887,83.9995 C175.2587,87.4325 173.8177,89.9365 171.1717,91.9375 C169.4257,93.2575 166.1407,93.2305 164.1587,91.8775 C160.9077,89.6565 159.6507,86.4185 159.4017,82.4575 C154.0547,82.1975 148.5917,81.9925 143.1377,81.6535 C137.6767,81.3135 132.2237,80.8395 126.5447,80.4065 C126.7437,80.9595 126.8207,81.2615 126.9577,81.5355 C128.8147,85.2625 127.5407,89.3645 123.8987,91.3275 C123.1367,91.7385 122.3567,92.1195 121.5747,92.4905 C119.6947,93.3815 117.4197,92.9055 116.1637,91.2225 C115.2897,90.0505 114.5107,88.7885 113.8507,87.4855 C112.6997,85.2145 112.8617,82.9705 114.3157,80.8455 C114.4617,80.6325 114.5467,80.3755 114.6437,80.1325 C114.6617,80.0865 114.6047,80.0085 114.5347,79.8165 C113.7687,79.7165 112.9327,79.6065 112.0617,79.4925 C111.0767,77.8515 111.1567,76.0175 110.9697,74.2745 C109.0447,73.8425 103.6147,73.9775 101.1157,74.5135 C100.7887,76.2445 100.3907,77.9885 100.1397,79.7545 C99.5077,84.1795 97.0647,87.0625 93.0607,88.9975 C89.7967,90.5745 86.4247,91.4135 82.8707,91.7845 C80.8297,91.9985 78.8737,91.7495 76.9577,91.0305 C73.0617,89.5685 69.6627,87.4635 67.3227,83.8815 C67.0027,83.3915 66.3407,82.9505 65.7667,82.8335 C63.6627,82.4065 61.5287,82.4115 59.1517,82.7035 C59.2097,83.4335 59.2477,84.0705 59.3127,84.7035 C59.4707,86.2725 59.2837,87.7855 58.5427,89.1905 C57.8617,90.4785 56.9227,91.4615 55.4187,91.8065 C54.5737,92.0005 53.7687,92.3575 52.9287,92.5765 C49.5747,93.4545 46.7127,92.3835 44.2177,90.1965 C43.2727,89.3685 43.0407,88.1275 43.0287,86.8875 C43.0187,85.8255 43.0257,84.7635 43.0257,83.4565 C42.3377,83.3775 41.6357,83.2375 40.9327,83.2285 C38.7657,83.2005 38.6567,83.3365 38.2587,85.5125 C37.8797,87.5815 37.2257,89.5075 35.5667,90.9775 C33.5957,92.7245 31.3147,92.7955 28.9577,92.2525 C27.3797,91.8885 25.9227,91.1695 24.8767,89.8495 C24.2917,89.1115 23.5637,88.9095 22.6327,88.8015 C16.5087,88.0905 10.3677,87.7355 4.2047,87.7415 C3.3407,87.7425 2.4747,87.9355 1.6117,87.9175 C1.1427,87.9075 0.5237,87.7755 0.2467,87.4585 C-0.1853,86.9655 -0.0143,86.3375 0.4847,85.8515 C1.0607,85.2895 1.6317,84.7235 2.1787,84.1355 C4.9137,81.1995 7.6417,78.2565 10.3717,75.3145 C11.5097,74.0885 11.5737,73.9295 10.7267,72.5615 C8.6837,69.2665 7.4207,65.6955 7.0887,61.8485 C6.9467,60.2065 6.9987,58.4855 7.3337,56.8765 C7.8737,54.2795 8.5187,51.7095 10.0257,49.3925 C11.5117,47.1115 13.8117,46.0635 15.9857,44.7915 C17.1347,44.1195 18.3927,43.6335 19.6487,43.0425 C19.7267,42.3775 24.4877,41.6835 24.5507,39.4445 C24.6027,37.5815 24.5617,35.7155 24.5617,34.0125 C23.2577,33.3175 22.0207,32.8125 20.9757,32.0445 C20.3217,31.5655 19.7547,30.7565 19.5047,29.9805 C18.7227,27.5465 20.6467,23.8665 23.0517,22.9375 C26.9677,21.4245 30.6477,21.7925 34.0827,24.2815 C35.9677,25.6455 36.8497,28.4035 35.9397,30.5555 C35.6947,31.1335 35.2037,31.6575 34.7117,32.0675 C34.2067,32.4875 33.5777,32.7795 32.9697,33.0525 C32.4277,33.2965 31.8397,33.4375 31.1967,33.6485 L31.1967,40.5865 C37.9037,40.4545 44.7947,40.3185 51.9167,40.1775 C51.9657,38.3565 52.1757,36.6235 52.0277,34.9215 C51.5807,29.7565 51.9787,24.6215 52.3547,19.4815 C52.3837,19.0805 52.3837,18.6755 52.4427,18.2795 C52.8037,15.8785 52.5807,13.7605 50.4717,12.0415 C48.6867,10.5865 48.3637,8.5395 49.2267,6.3815 C49.4217,5.8925 49.6487,5.3365 50.0317,5.0165 C51.5977,3.7105 53.1157,2.3795 55.3097,2.0595 C60.7237,0.0005 73.8297,0.3725 78.5717,0.0915 C80.7707,-0.0385 83.0167,-0.0645 85.1867,0.2465 C87.8857,0.6325 90.5137,1.4955 93.2007,2.0025 C95.8497,2.5005 97.9737,3.9455 100.1927,5.3265 C102.6167,6.8345 102.7197,11.7805 100.9477,14.1005 C100.5307,14.6465 99.7737,14.9315 98.9187,15.5075 C98.9187,16.0885 98.9057,16.8705 98.9207,17.6525 C99.0647,25.3505 99.2067,33.0485 99.3607,40.7465 C99.4407,44.7585 99.6487,48.7725 99.6037,52.7825 C99.5647,56.2605 99.2957,59.7385 99.0437,63.2105 C98.8437,65.9575 98.7857,65.9525 99.8987,68.7735 C103.3587,68.6345 106.8677,68.4925 110.3697,68.3515 C110.3697,66.4065 110.3737,64.5535 110.3687,62.7005 C110.3567,57.4795 110.3017,52.2575 110.3557,47.0365 C110.3707,45.5085 110.7557,43.9865 110.8577,42.4535 C110.9397,41.2605 110.8607,40.0555 110.8257,38.8565 C110.7557,36.4935 111.0867,34.2315 113.2487,32.8525 C114.2917,32.1885 115.5627,31.6975 116.7837,31.5305 C120.6827,30.9975 124.5807,30.5455 128.5587,30.9265 C133.7467,31.4235 138.9597,31.6805 144.1677,31.9505 C145.8987,32.0405 147.6477,31.8995 149.3807,31.7765 C153.7157,31.4705 158.0417,31.0255 162.3797,30.8135 C164.6957,30.7005 167.0677,30.7235 169.3467,31.1005 C172.6297,31.6435 174.6787,34.1975 174.9077,37.5275 C175.2217,42.0595 175.4157,46.6005 175.8157,51.1235 C176.0687,53.9825 176.6237,56.8145 177.0097,59.6625 C177.2787,61.6495 177.4817,63.6445 177.7357,65.6335 C177.8447,66.4775 178.0057,67.3145 178.1627,68.2755" id="Fill-1"></path>
            <path d="M231.9891,50.8757 C231.9491,51.3727 231.9001,51.8367 231.8771,52.3027 C231.6431,57.0537 235.1941,58.9417 238.6731,58.8177 C239.6011,58.7837 240.3651,58.3927 240.8251,57.5707 C242.1041,55.2857 243.1211,52.9157 243.0301,50.2157 C242.9251,47.0987 241.5091,44.7707 238.8451,43.1587 C237.4951,42.3407 236.1421,42.7377 234.7701,43.0077 C233.6151,43.2347 233.5281,44.2977 233.1491,45.0967 C232.2821,46.9277 231.7891,48.8537 231.9891,50.8757 M229.6651,52.1187 C229.7021,49.7717 229.8791,47.4387 230.7681,45.2417 C231.1651,44.2647 231.6991,43.3277 232.2791,42.4447 C232.8481,41.5777 233.6431,41.0637 234.7931,41.0907 C235.7771,41.1137 236.7841,40.7287 237.7521,40.8227 C240.3391,41.0727 244.2511,44.1927 244.9481,47.5317 C245.8061,51.6467 244.6141,55.1477 242.6121,58.5547 C241.9761,59.6367 241.0251,60.3507 239.7421,60.5337 C236.2671,61.0287 233.1941,60.1317 230.9441,57.4267 C230.1631,56.4867 230.0271,54.9847 229.6861,53.7157 C229.5521,53.2177 229.6651,52.6527 229.6651,52.1187" id="Fill-4"></path>
            <path d="M212.1629,50.4856 C212.2219,50.4936 212.2809,50.5016 212.3409,50.5086 C212.3099,51.1776 212.2359,51.8476 212.2599,52.5146 C212.3269,54.4586 212.9439,56.1976 214.4069,57.5336 C215.8539,58.8546 217.3679,58.9346 218.9359,57.7846 C221.1209,56.1826 222.1609,53.9666 222.3469,51.2916 C222.5619,48.1706 221.0499,45.6136 219.6509,43.0396 C219.3699,42.5206 218.6839,42.0676 218.0949,41.8986 C216.4349,41.4226 213.1379,43.6116 212.8479,45.3436 C212.5609,47.0476 212.3869,48.7706 212.1629,50.4856 M217.3619,60.3816 C213.0779,60.3476 209.5069,56.3866 210.0999,52.7556 C210.5049,50.2666 210.4069,47.6996 210.7079,45.1886 C210.8109,44.3296 211.2299,43.2506 211.8759,42.7676 C213.2969,41.7056 214.8749,40.7466 216.5329,40.1366 C218.6829,39.3466 220.5639,40.2826 221.8009,42.2386 C223.9589,45.6526 224.9109,49.3066 224.0849,53.3206 C223.4639,56.3366 221.6059,58.4496 218.9969,59.9236 C218.3859,60.2686 217.6069,60.3166 217.3619,60.3816" id="Fill-6"></path>
            <path d="M191.6531,50.8425 C191.7261,51.8425 191.6641,52.7945 191.8861,53.6755 C192.4051,55.7195 195.8381,58.4905 197.9261,58.6985 C198.7361,58.7795 199.4511,58.5515 199.7751,57.8045 C200.2991,56.5945 201.0121,55.3455 201.0801,54.0825 C201.2201,51.4315 201.0411,48.7575 200.8791,46.0985 C200.8421,45.5085 200.4651,44.8025 200.0181,44.3965 C197.3641,41.9745 193.2191,43.2465 192.3211,46.7625 C191.9771,48.1075 191.8641,49.5115 191.6531,50.8425 M189.3781,51.6985 C189.6471,49.9225 189.8051,48.1215 190.2091,46.3765 C190.9361,43.2365 193.4791,41.8945 196.2161,41.1155 C198.6411,40.4255 201.3841,42.4475 202.3401,44.6995 C203.3901,47.1765 202.8321,49.6975 203.1151,52.1835 C203.3651,54.3745 202.6311,56.2505 201.7291,58.1325 C200.7271,60.2225 199.2151,60.9885 196.9871,60.3805 C195.6391,60.0125 194.2871,59.5825 193.3231,58.4465 C193.1521,58.2445 192.9601,58.0325 192.7321,57.9135 C190.2161,56.5925 189.4151,54.3895 189.3781,51.6985" id="Fill-8"></path>
            <path d="M117.993,51.1926 C118.439,52.9266 118.77,54.7006 119.367,56.3806 C119.862,57.7746 121.174,58.5136 122.453,59.1086 C123.555,59.6196 126.791,58.6576 127.43,57.6436 C128.333,56.2086 128.952,54.6306 128.83,52.9006 C128.676,50.7056 128.455,48.5126 128.16,46.3336 C128.065,45.6276 127.789,44.8536 127.352,44.3036 C125.415,41.8596 123.97,41.5476 121.8,43.7946 C121.197,44.4186 120.675,45.1206 120.122,45.7926 C118.845,47.3426 118.119,49.0896 117.993,51.1926 M130.826,53.1116 C130.591,54.1876 130.453,55.6716 129.933,57.0066 C128.874,59.7266 126.557,60.7966 123.821,61.1976 C121.442,61.5466 118.142,59.3516 117.222,56.8116 C116.534,54.9156 116.36,52.7866 116.24,50.7446 C116.107,48.4746 116.925,46.4156 118.436,44.6766 C119.224,43.7696 119.993,42.8426 120.834,41.9856 C123.134,39.6436 126.306,39.8786 128.281,42.4826 C129.466,44.0436 130.397,45.6226 130.303,47.7436 C130.229,49.3896 130.606,51.0566 130.826,53.1116" id="Fill-10"></path>
            <path d="M145.7283,42.3586 C143.9423,41.9796 142.1413,42.1476 140.7293,43.4886 C139.0573,45.0756 137.7043,46.9006 137.8963,49.4246 C137.9363,49.9576 137.9663,50.5046 137.8903,51.0276 C137.5303,53.4966 138.7163,55.2856 140.4503,56.7876 C143.7543,59.6526 145.7823,59.1656 146.7343,54.8756 C147.6463,50.7736 148.8333,46.4726 145.7283,42.3586 M135.7423,50.6616 C135.2433,46.9866 136.8883,44.0336 139.8913,41.6976 C142.0123,40.0466 144.3913,40.2636 146.8043,40.7326 C146.9893,40.7686 147.2213,40.8766 147.3143,41.0236 C147.9973,42.1086 148.8713,43.1406 149.2493,44.3286 C149.6413,45.5616 149.6693,46.9546 149.6323,48.2716 C149.5823,50.0686 149.3533,51.8646 149.1413,53.6546 C148.8643,55.9996 147.8033,57.9876 146.1483,59.6396 C145.0803,60.7046 143.6413,60.8996 142.4173,60.2426 C140.6693,59.3046 138.9323,58.2096 137.5043,56.8506 C135.8783,55.3036 135.5283,53.1176 135.7423,50.6616" id="Fill-12"></path>
            <path d="M168.157,49.2639 C168.157,48.5959 168.123,47.9249 168.164,47.2589 C168.245,45.9609 167.678,44.9879 166.877,44.0059 C166.031,42.9699 164.845,43.0429 163.786,42.7939 C161.755,42.3169 160.612,43.0229 159.959,45.0159 C158.883,48.2959 158.345,51.5969 159.197,55.0619 C159.586,56.6469 160.353,57.7109 161.787,58.3709 C163.412,59.1199 164.206,58.9759 165.262,57.5789 C167.116,55.1259 168.565,52.5179 168.157,49.2639 M170.198,46.2059 C170.015,48.5069 169.905,50.4989 169.688,52.4799 C169.368,55.4129 167.619,57.6429 165.818,59.7889 C165.045,60.7109 163.793,60.9089 162.656,60.6429 C159.436,59.8899 157.221,58.4189 156.822,54.5279 C156.481,51.2019 156.827,48.0149 157.834,44.8519 C158.895,41.5219 161.617,40.2119 165.058,41.0219 C167.12,41.5079 168.444,42.7839 169.654,44.2559 C170.1,44.7989 170.078,45.7289 170.198,46.2059" id="Fill-14"></path>
            <path d="M85.9227,23.0827 L66.9997,23.0827 C66.9787,24.3727 66.8687,25.4967 66.9557,26.6037 C67.5017,33.5577 67.3267,40.5057 66.9037,47.4567 C66.8497,48.3597 66.8977,49.2687 66.8977,50.3987 C73.6297,50.4297 80.0737,51.6637 86.7947,51.4047 C86.5987,41.8877 86.9767,32.5517 85.9227,23.0827 M87.8307,20.1437 C87.9677,20.6957 88.0487,20.8847 88.0567,21.0767 C88.2847,26.3567 88.6087,31.6357 88.6977,36.9177 C88.7797,41.6587 88.6197,46.4047 88.5357,51.1477 C88.5027,53.0357 87.5187,53.8717 85.5907,53.7547 C82.5207,53.5677 79.4497,53.3887 76.3807,53.1897 C73.0487,52.9757 69.7187,52.7457 66.3877,52.5157 C65.2047,52.4337 64.8087,52.0477 64.9577,50.8637 C65.5937,45.8097 65.5947,40.7297 65.5747,35.6537 C65.5657,32.9167 65.3617,30.1807 65.2687,27.4437 C65.2257,26.1757 65.1717,24.9027 65.2367,23.6387 C65.3337,21.7837 66.4927,20.8597 68.4047,20.8357 C73.9527,20.7657 79.4997,20.6657 85.0457,20.5367 C85.9447,20.5157 86.8407,20.2887 87.8307,20.1437" id="Fill-16"></path>
            <path d="M83.3074,71.5954 C81.1384,72.2994 80.4204,73.6634 81.2124,75.2384 C81.5184,75.8444 81.8484,76.4704 82.6934,76.3074 C83.3744,76.1764 84.0264,75.2324 83.9114,74.4654 C83.7764,73.5554 83.5364,72.6604 83.3074,71.5954 M78.8044,74.3264 C78.8104,71.3814 81.3024,69.3584 84.0734,69.9584 C84.9424,70.1474 85.4834,70.6504 85.5724,71.5754 C85.6464,72.3534 85.6784,73.1404 85.8304,73.9034 C86.1894,75.6894 85.6934,76.7204 83.8604,77.8004 C82.9834,78.3164 81.1424,78.1584 80.2674,77.3664 C79.3624,76.5474 78.6324,75.5794 78.8044,74.3264" id="Fill-18"></path>
            <path d="M50.8026,85.8733 C51.3896,85.8933 51.9766,85.9233 52.5616,85.9023 C52.5906,85.9013 52.7156,85.3363 52.6046,85.2253 C51.9756,84.5953 51.4156,85.0773 50.8026,85.8733 M48.4556,85.5603 C49.0196,84.6193 49.4886,83.7593 50.0436,82.9583 C50.2046,82.7273 50.6656,82.4943 50.9046,82.5623 C51.9746,82.8683 53.0936,83.1473 54.0366,83.7043 C54.6536,84.0673 55.3646,84.8073 54.8986,85.7193 C54.3596,86.7743 53.8256,88.0573 52.4076,88.0353 C51.4536,88.0203 50.4396,87.6853 49.5826,87.2413 C49.0996,86.9903 48.8806,86.2293 48.4556,85.5603" id="Fill-20"></path>
            <path d="M241.8836,85.4421 C241.7516,85.4591 241.6206,85.4761 241.4896,85.4931 C241.5276,85.8091 241.5636,86.1241 241.5996,86.4401 C241.7326,86.4211 241.8646,86.4041 241.9966,86.3861 C241.9586,86.0711 241.9206,85.7561 241.8836,85.4421 M239.3126,85.9761 C239.3606,85.3081 239.3566,85.0401 239.4026,84.7801 C239.5976,83.6631 240.3136,82.9271 241.1696,82.9441 C242.1136,82.9621 243.0406,83.7711 243.2426,84.7451 C243.3486,85.2561 243.4576,85.7671 243.5846,86.2731 C243.9006,87.5311 243.6766,88.1681 242.7416,88.6221 C241.7896,89.0841 240.6726,88.9011 240.0976,87.9841 C239.6586,87.2861 239.4806,86.4251 239.3126,85.9761" id="Fill-22"></path>
            <path d="M192.1151,84.634 C192.1321,83.308 192.6771,82.611 193.8591,82.506 C195.0011,82.405 196.0981,83.283 196.3001,84.674 C196.4211,85.51 196.3371,86.409 196.1691,87.245 C195.9911,88.135 194.6811,88.466 193.6361,87.968 C192.2541,87.309 192.1931,86.017 192.1151,84.634" id="Fill-24"></path>
            <path d="M32.6219,85.175 C32.6179,84.986 32.6139,84.798 32.6099,84.609 C32.2439,84.517 31.6659,84.237 31.5499,84.368 C31.1749,84.788 30.9719,85.36 30.7019,85.874 C30.8269,85.968 30.9519,86.063 31.0769,86.158 C31.5929,85.83 32.1069,85.503 32.6219,85.175 M28.8339,86.218 C28.8669,84.173 30.7679,82.404 32.2569,82.564 C33.1759,82.663 33.9249,83.029 34.2379,83.968 C34.5569,84.925 34.4039,85.826 33.6849,86.54 C33.2679,86.955 32.7309,87.252 32.2429,87.594 C31.5029,88.113 30.5949,88.559 29.8609,87.965 C29.2689,87.486 29.0289,86.572 28.8339,86.218" id="Fill-26"></path>
            <path d="M120.9764,85.0627 C120.8314,85.9917 120.8314,85.9917 121.5634,86.6697 C121.6844,85.6927 121.6844,85.6927 120.9764,85.0627 M123.5374,86.9157 C123.4204,87.1577 123.2294,88.2057 122.7914,88.3207 C121.9844,88.5337 120.9494,88.3907 120.1624,88.0447 C119.1894,87.6177 118.4834,84.9377 118.8364,83.9437 C119.1534,83.0547 119.7094,82.6737 120.6644,82.8797 C122.0684,83.1837 123.5944,85.0477 123.5374,86.9157" id="Fill-28"></path>
            <path d="M170.0711,85.9035 C170.1641,86.8725 169.8611,87.5845 168.8731,87.9225 C167.8161,88.2845 167.0491,88.1475 166.4331,87.2445 C165.9921,86.5975 165.6221,85.8695 165.3851,85.1245 C165.1271,84.3105 165.3641,83.4975 166.1261,83.0345 C166.9321,82.5455 167.7951,82.5595 168.4601,83.3275 C169.1291,84.1005 170.2051,84.6355 170.0711,85.9035" id="Fill-30"></path>
        </g>
    </g>
</svg>