<svg xmlns="http://www.w3.org/2000/svg" viewBox="0 0 113.27 166.44"><defs><style>.cls-1{fill:#2e86ab;}</style></defs><title>Recurso 1</title><g id="Capa_2" data-name="Capa 2"><g id="Capa_1-2" data-name="Capa 1"><path class="cls-1" d="M3.4,13.1c8.67,5.09,16,12,23.93,18.32.9-1,1.74-1.81,2.53-2.71q5.37-6.1,10.7-12.23c3.38-3.89,6.65-7.87,10.13-11.67A19.61,19.61,0,0,1,55.47,1,9,9,0,0,1,59.39.4C64.54.21,69.69,0,74.84,0,78.57,0,82.29.52,86,.77c1.33.09,2.67.08,4,.12,2.6.07,5.21.07,7.81.25a12.3,12.3,0,0,1,2.88,1c-1.77,2.32-4,3.71-5.62,5.68s-3.39,4-5.07,6-3.31,3.85-4.84,5.87-3,4.24-4.59,6.46c.79.75,1.48,1.45,2.22,2.1,3.93,3.42,7.83,6.88,11.81,10.23a148.22,148.22,0,0,0,16.07,12.3,15.85,15.85,0,0,0,2.6,1.06c-.17,3.27-.3,6.47-.53,9.67-.16,2.33-.51,4.65-.67,7-.2,2.94-.29,5.88-.44,8.82-.12,2.4-.3,4.81-.4,7.21s-.19,4.67-.16,7c0,1.83-.57,3.11-2.64,3.61l-24.6-16a2.52,2.52,0,0,0-.54.43c-3.07,4.06-6,8.2-9.21,12.16-2.88,3.6-6,7-9,10.51-1.19,1.36-2.41,2.7-3.66,4A5,5,0,0,0,60,109.81c-.07,5.15-.16,10.3-.24,15.45-.13,8.56-.23,17.13-.41,25.69-.08,3.54-.34,7.08-.53,10.63,0,.53-.19,1.06-.24,1.59a3.27,3.27,0,0,1-2.71,3.07,4,4,0,0,1-4.38-1.2,3.48,3.48,0,0,1-.72-2.2c.2-5.88.5-11.76.76-17.65.06-1.2.21-2.41.18-3.61-.11-5.43.64-10.81,1-16.22.08-1.27.13-2.54.17-3.81.11-3.14.21-6.28.29-9.43a16.17,16.17,0,0,0-.16-1.76c-.83-.08-1.6-.21-2.37-.23-3.06-.06-6.13-.07-9.19-.13-3.41-.07-6.82-.16-10.22-.3-1.8-.07-3.6-.32-5.4-.36-2.79-.06-5.59,0-8.39,0a4.5,4.5,0,0,1-1.39-.14,1,1,0,0,1-.55-1.71c1-1.37,1.94-2.74,3-4,3.25-3.82,6.59-7.57,9.84-11.39,2.07-2.44,4-5,5.9-7.3l-14-10.65c-5.87-4.45-11.67-9-17.64-13.27A5.49,5.49,0,0,1,0,55.48q.4-5.8.6-11.61c.19-5.55.25-11.1.46-16.64.13-3.68.39-7.35.64-11A3.29,3.29,0,0,1,3.4,13.1ZM50.2,50.81,37.7,42c-.38-.27-.72-.59-1.1-.87-1.93-1.43-3.86-2.87-5.81-4.28-1.68-1.22-3.49-2.28-5-3.63-6.31-5.49-12.64-11-19.43-15.85a3.69,3.69,0,0,0-3.08-.88C3,29.78,2.33,43.09,2.19,56.5,3.74,56.27,5,56,6.25,55.92c3.94-.21,7.88-.41,11.82-.49,3.48-.07,7,.16,10.44,0,6-.22,12-.6,18-.92,2.35-.13,2.66-.37,3.43-2.59C50,51.71,50.07,51.44,50.2,50.81Zm60.64,3c-15,.43-29.74.25-44.2,1.89L64.44,61l1.18.8c1.54,1.06,3.14,2,4.61,3.2,4.61,3.64,9.17,7.35,13.75,11,.83.67,1.7,1.31,2.58,1.91,3.7,2.5,7.37,5,11.13,7.46,3.42,2.21,6.94,4.27,10.42,6.38.13.08.36,0,.52,0ZM56.65,3.09a12.14,12.14,0,0,0,0,2.33c1.17,5.47,1.2,11.05,1.24,16.58.06,8-.42,16-.66,24.07a2.79,2.79,0,0,0,.12.78l5.55,2c.75-1,1.73-2.06,2.51-3.28,2.19-3.44,4.23-7,6.44-10.4,2.35-3.65,4.88-7.19,7.21-10.86C82.66,18.66,87,13.67,91.29,8.62c1.49-1.77,3.1-3.43,5-5.47l-4.31-.06c-1.8,0-3.61,0-5.41-.11-2.54-.16-5.07-.63-7.6-.61-6.69,0-13.38.25-20.07.42A20,20,0,0,0,56.65,3.09ZM19.31,106.41c3.16.65,34.81,1.8,36.72,1.41V62.75l-2.47-.37C48,69.85,42.4,77.14,37.09,84.66S25.08,98.8,19.31,106.41Zm29.6-50.09c-2,.12-4,.09-6,.39-5.71.87-11.47.79-17.22.94-5.08.13-10.17.06-15.25.1a23.3,23.3,0,0,0-6.06.88,7.42,7.42,0,0,0,.89,1C9,62.47,12.8,65.26,16.52,68.09,18.38,69.51,20.15,71,22,72.48s3.6,2.77,5.4,4.15c1.17.89,2.35,1.77,3.53,2.65a23,23,0,0,0,4.9,3.37c1.56-2.06,3.09-4.07,4.62-6.09Q45,70.46,49.6,64.36a16.94,16.94,0,0,0,1.64-2.5,1.86,1.86,0,0,0-.06-1.45C50.51,59,49.72,57.75,48.92,56.32ZM29.34,32.78,51.75,49.21l3.07-1.83c1.67-13.43,1.39-37.07-.58-43a25.4,25.4,0,0,0-2.41,2.15c-2,2.27-3.87,4.61-5.81,6.92Q44,15.89,41.88,18.33q-4.73,5.47-9.47,10.92ZM58.5,105.72c9-8.55,16.27-18.21,23.55-28.27-.35-.23-.65-.38-.91-.59-3.39-2.71-6.76-5.44-10.16-8.14-2-1.62-4.1-3.21-6.16-4.81S60.53,61.48,58,62.8C57.44,65.37,57.82,100,58.5,105.72ZM78.33,29.3,64.57,51.05l1.22,2.09c3-.17,5.9-.36,8.84-.52q3.7-.2,7.41-.37c3.87-.18,7.75-.41,11.62-.5,4.08-.09,8.17,0,12.25-.06a7.34,7.34,0,0,0,1.55-.45,45,45,0,0,1-3.84-2.41c-3.9-3.05-7.7-6.24-11.61-9.27C87.54,36.11,83.63,31.9,78.33,29.3ZM55.39,110.42c0,.59,0,.91,0,1.24,0,3.21,0,6.43-.16,9.63-.49,8.47-1.12,16.94-1.62,25.41-.23,3.87-.28,7.74-.38,11.62,0,1.92,0,3.84,0,5.71,2.31.54,2.68.34,3-1.71a23.14,23.14,0,0,0,.21-2.59c0-.73,0-1.47.09-2.2.21-4.14.52-8.27.62-12.42.13-5.75.07-11.5.16-17.25.09-4.95.29-9.9.42-14.85,0-.77-.08-1.55-.13-2.41ZM57.57,61a26.09,26.09,0,0,0,3-.37,4.35,4.35,0,0,0,3.23-5.83,10.72,10.72,0,0,0-2.58-3.94c-1.38-1.26-3-2.38-5.21-1.85-2,.47-3,1.78-3.75,3.49C50.28,56.85,52.86,60.93,57.57,61Z"/></g></g></svg>