<?xml version="1.0" encoding="UTF-8"?>
<svg width="135px" height="163px" viewBox="0 0 135 163" version="1.1" xmlns="http://www.w3.org/2000/svg" xmlns:xlink="http://www.w3.org/1999/xlink">
    <!-- Generator: Sketch 48.2 (47327) - http://www.bohemiancoding.com/sketch -->
    <title>puzzle</title>
    <desc>Created with Sketch.</desc>
    <defs>
        <polygon id="path-1" points="0.126251697 0.0947384106 78.8707145 0.0947384106 78.8707145 65.8172131 0.126251697 65.8172131 0.126251697 0.0947384106"></polygon>
    </defs>
    <g id="Symbols" stroke="none" stroke-width="1" fill="none" fill-rule="evenodd">
        <g id="puzzle">
            <g id="Page-1">
                <g id="Group-3" transform="translate(0.000000, 54.000000)" fill="#2E86AB">
                    <path d="M41.8438763,26.5800692 C41.7436701,28.7684538 40.1334124,28.983659 38.8571753,29.2463769 C36.406299,29.7522487 34.7835155,31.3509154 33.1050619,32.9817231 C30.3076392,35.6997359 31.1983608,40.3490051 33.4961443,42.281659 C36.6804742,44.9591462 40.3574845,46.4096846 44.5035155,46.4348385 C47.0810412,46.4502103 50.1261959,43.2570692 50.5256289,40.2595692 C50.721866,38.7852744 50.7009897,37.2802359 50.7775361,35.7905692 C50.8053711,35.2343897 50.738567,34.6530564 50.879134,34.1276205 C51.2869175,32.6128 52.4893918,32.1614282 53.8630515,32.9272231 C57.9311443,35.1938641 61.9908866,37.4716846 66.0742887,39.7089795 C68.3414536,40.9513 68.8021237,40.9471077 70.3636701,39.0521846 C72.5946495,36.341159 74.6474845,33.4861974 76.2605258,30.0890308 C71.6399072,30.0764538 67.7123814,28.7572744 64.0144948,26.6974538 C56.6354227,22.5861974 57.2951134,14.650159 59.8086186,9.87931282 C60.8593918,7.88656923 62.5601134,6.55062051 64.8843402,6.37174872 C67.8390309,6.14396667 70.8187732,5.78901795 73.7623299,5.95531282 C76.9744948,6.13697949 79.4796495,8.02351795 81.4656804,10.508159 C82.2742887,11.5213 82.9242371,12.6602103 83.7119691,13.8410436 C85.3486701,13.1674795 86.0125361,11.6792103 86.8322784,10.3921718 C88.5357835,7.71328718 90.147433,4.97571026 91.8091856,2.27027436 C92.1501649,1.71688974 92.4674845,1.10481282 92.9392887,0.684184615 C93.7966082,-0.0774179487 94.7569175,-0.189212821 95.6587732,0.695364103 C101.764392,6.66381282 108.975062,11.0643385 116.121711,15.6185821 C121.033206,18.747441 126.331608,21.3802103 130.559753,25.5347872 C131.817897,26.7715179 133.087175,27.9984667 134.302175,29.2757231 C135.063464,30.0750564 134.943773,30.9484538 134.336969,31.8246462 C130.725371,37.0440692 127.09568,42.2509154 123.532794,47.5052744 C120.550268,51.9016077 117.683258,56.3789923 114.707691,60.7823128 C112.145474,64.572159 109.391196,68.2348385 106.919443,72.0819795 C101.772742,80.0864923 96.6608351,88.1175564 91.7201134,96.2492359 C88.004134,102.365813 86.4314536,104.582146 81.4628969,108.999441 C80.6097526,108.545274 79.606299,108.114864 78.7100103,107.518159 C74.2911959,104.577954 69.9071753,101.590236 65.5008866,98.6318641 C60.8621753,95.5155821 56.1914536,92.4496077 51.5791856,89.2969923 C48.5883093,87.253941 45.6753711,85.0935051 42.7304227,82.9833769 C42.5787216,82.8757744 42.4520722,82.675941 42.2906289,82.6451974 C38.8488247,82.0009795 36.4703196,79.4744154 33.6144433,77.7849154 C31.4739278,76.517441 29.1984124,75.4414154 26.8922784,74.5051333 C22.0837732,72.5501205 18.0671753,69.3639667 13.855732,66.4517103 C10.5684124,64.1794795 7.12104124,62.1406205 3.74186598,60.0053385 C3.50665979,59.8558128 3.20464948,59.7999154 2.99449485,59.6266333 C-0.258030928,56.9491462 -0.830041237,56.9128128 1.12954639,53.3144154 C3.44681443,49.0564282 5.72928866,44.7788769 8.02985567,40.5139026 C8.11892784,40.3504026 8.23165979,40.1952872 8.35552577,40.0583385 C14.0672784,33.7461205 17.5035155,25.7513897 23.3753196,19.5579538 C23.5033608,19.4224026 23.6216598,19.2714795 23.7079485,19.1065821 C25.7092887,15.3013641 26.5290309,16.3731974 29.4002165,18.0095949 C32.7933093,19.9450436 36.018,22.1823385 39.269134,24.3581462 C40.2489278,25.014941 41.0742371,25.9079026 41.8438763,26.5800692" id="Fill-1"></path>
                </g>
                <path d="M89.7772021,111.026251 C90.5899207,110.328592 91.0058899,109.844107 91.5275674,109.546494 C93.5195518,108.408645 95.5293831,107.302634 97.5625526,106.240919 C100.175059,104.877439 101.583588,102.4384 102.603605,99.9163077 C103.184314,98.4794622 102.948187,96.6190381 102.771091,94.9828616 C102.57203,93.1515066 99.6986847,90.2930424 97.9634206,90.1241647 C94.8113901,89.8182467 91.697799,89.9483657 89.026261,92.0219634 C86.7542181,93.7882589 84.5988663,95.6860576 83.5459014,98.478078 C82.697489,100.728859 82.8347726,102.950571 83.799876,105.212426 C84.3764669,106.562064 83.3125194,107.452133 81.754351,106.927504 C78.7176387,105.907316 75.7028918,104.809611 72.7224658,103.62885 C71.9015101,103.304937 71.242549,102.571288 70.499845,102.038354 C69.5580798,101.364227 68.6094504,100.701174 67.5935521,99.9827514 C65.0043842,103.195582 62.6074133,106.168938 59.9866702,109.420528 C61.290864,109.635086 62.0939728,109.797042 62.9039458,109.896708 C67.2626987,110.425489 70.7620566,112.323288 72.8226828,116.37497 C74.5840308,119.838349 75.4887295,123.398625 74.0019485,127.282814 C72.4684912,131.291585 67.2709357,134.480884 63.5972278,133.014969 C60.1294451,131.630725 56.882689,129.659561 53.6222045,127.797753 C52.5610026,127.194223 51.7633851,126.121433 50.7735707,125.195374 C48.5042735,128.463574 46.3640229,131.543518 44,134.94599 C55.964262,143.342815 67.9930473,151.210858 80.3650414,159 C85.4733626,153.28584 88.8683849,146.349393 93.1296665,140.019244 C97.425269,133.639263 101.611045,127.183149 106,120.524934 C102.731279,118.657589 99.9457951,116.553538 96.81573,115.435069 C94.1730216,114.491014 92.3622515,112.702571 89.7772021,111.026251" id="Fill-4" fill="#FFFFFF"></path>
                <path d="M53.2462701,91.3308927 C53.0331511,92.6494509 52.8864588,93.7358879 52.6788753,94.80859 C51.8305509,99.1969165 48.8856334,101.796948 44.9913676,103.522062 C44.3478589,103.80775 43.5258283,103.892907 42.8186606,103.80775 C38.720963,103.31329 34.9526311,101.998853 31.4763,99.6790143 C27.1461089,96.7891743 26.479074,89.3709109 30.2875387,86.1940097 C32.1806999,84.6131134 33.9008749,82.8303128 35.8895245,80.9582349 C32.6595258,78.9831446 29.4751954,77.0368977 26.1455566,75 C25.1657626,76.094678 24.2150303,76.9750903 23.4829526,78.0065874 C18.1120764,85.5786826 12.6484795,93.0889703 7.51701624,100.816271 C5.61831946,103.673147 4.53473377,107.06294 3,110.381312 C5.64599726,112.094064 8.04981381,113.631008 10.432872,115.19817 C12.6637023,116.663692 14.8613193,118.181408 17.0963013,119.64281 C19.7201563,121.359682 22.2416035,123.289447 25.0315253,124.682174 C29.6537172,126.988278 34.3561746,129.102091 38.6240907,132.060606 C40.717916,133.512394 41.2548652,133.322851 42.6484422,131.20217 C44.8682014,127.823364 47.0090789,124.392366 49.2814259,121.049272 C49.6799862,120.461414 50.5379978,119.918883 51.2174877,119.877678 C51.6506452,119.851581 52.3508935,120.708644 52.5736997,121.300622 C53.386043,123.461134 54.7450228,125.199983 56.6769329,126.363336 C59.0323133,127.782159 61.4638077,129.132308 64.008781,130.155564 C65.0674566,130.579975 66.6063421,130.364336 67.7438995,129.948166 C70.387129,128.978476 72.4103758,125.580442 71.9287822,122.81147 C70.926846,117.05926 68.0801847,112.105052 60.6902133,112.195703 C59.3948924,112.212185 58.0898844,112.20257 56.8028669,112.070714 C56.2202493,112.011654 55.257062,111.695749 55.1989386,111.368857 C55.0923791,110.770012 55.4978588,110.064034 55.759414,109.429478 C55.8562863,109.197356 56.160742,109.055886 56.348951,108.853982 C58.358359,106.69759 60.417587,104.581029 62.350881,102.357336 C63.4759834,101.062127 64.3948862,99.5911105 65.4300358,98.1681664 C61.7890218,95.0970246 57.617978,93.5339837 53.2462701,91.3308927" id="Fill-6" fill="#FFFFFF"></path>
                <path d="M132,84.8383167 C130.66992,83.5384828 129.553327,82.1223699 128.136168,81.1215393 C123.33833,77.7369878 118.551728,74.3136766 113.541808,71.2530454 C107.541702,67.5861019 101.683452,63.7641196 96.3111656,59.2416944 C95.7760437,58.7918051 95.1566508,58.4415836 94.5119764,58 C93.9305054,58.7848837 93.4628005,59.3593577 93.0540854,59.9725914 C90.8911258,63.2173311 88.7801333,66.4939092 86.5806561,69.7123477 C85.003381,72.0213178 83.1831241,71.9576412 81.5454546,69.627907 C80.6367306,68.3336102 79.8473908,66.9382614 78.7982149,65.7685493 C78.0158977,64.8978405 76.9751489,63.8499446 75.9245685,63.6949059 C72.7938951,63.2311739 69.6028273,63.0761351 66.4314228,63.0124585 C65.6168017,62.9958472 64.6111659,63.5827796 63.9917729,64.1890919 C60.8049187,67.3050941 59.2768017,73.5952381 63.9833458,77.5750277 C67.9539217,80.933278 72.6239483,82.8228128 78.0496062,80.9831118 C79.2827741,80.5650609 80.5103239,80.076412 81.9106296,81.2987265 C80.1676212,84.0035991 78.5369743,86.6821705 76.7560439,89.2583056 C74.9133147,91.9216501 72.9259199,94.4880952 70.8528495,97.2981728 C74.3023488,99.108804 77.2771206,101.457918 80.8347679,102.52381 C81.3726987,100.220377 81.4668015,98.0789037 82.3558622,96.3319491 C85.511817,90.1234773 91.7408599,86.3707087 99.5401554,87.2206534 C103.050049,87.6027132 105.168064,90.0113511 106.533257,92.5971761 C109.569827,98.35299 105.634364,105.178848 101.290186,107.724529 C99.5598186,108.740587 97.8434961,109.777409 95.4698585,111.192137 C98.2606383,112.302326 100.467138,112.998616 102.495264,114.035437 C104.616088,115.120709 106.566965,116.532669 108.90549,118 C116.357869,106.553433 125.133305,96.4897564 132,84.8383167" id="Fill-8" fill="#FFFFFF"></path>
                <g id="Group-12" transform="translate(13.000000, 0.000000)">
                    <mask id="mask-2" fill="white">
                        <use xlink:href="#path-1"></use>
                    </mask>
                    <g id="Clip-11"></g>
                    <path d="M61.6367764,54.0142689 C60.9977149,51.7962755 60.5772798,49.9516629 61.2191441,47.8144758 C61.8483954,45.7190851 62.1160725,43.4788003 61.4601936,41.2022921 C60.5954986,38.2082796 58.7455839,36.1560785 56.049193,34.7572937 C51.5253106,32.4111248 46.0694636,34.5594576 44.4199563,39.3228492 C43.2048987,42.83235 42.7312084,46.3850404 43.8691862,50.0032118 C44.0850096,50.6900652 44.4185549,51.3824916 44.8600118,51.9467424 C46.0106027,53.4110081 47.2733096,54.7875015 48.4477252,56.2350487 C49.0755751,57.0082813 49.6137321,57.8567474 50.2359761,58.7316844 C49.0741736,60.0608086 47.8422986,60.714225 46.3679726,61.1781646 C43.5300352,62.0712134 40.7495573,63.1523459 37.9620722,64.2014344 C36.7400073,64.6611944 35.5922193,65.3355089 34.3477312,65.7116762 C33.7142755,65.9039394 32.8425733,65.8300992 32.2791902,65.5180197 C32.0213233,65.3731257 32.2357452,64.3686199 32.2553655,63.7528202 C32.2819931,62.9405776 32.5776991,62.041956 32.3226351,61.3328111 C31.1636355,58.1075255 29.8518778,54.935182 28.586368,51.7196488 C26.4197254,53.2006331 24.502541,54.9045313 22.2742347,55.9564063 C17.320107,58.2914295 12.0632659,58.9058359 6.71533062,57.3955942 C1.95320164,56.0497515 -1.26733174,50.0282896 0.726932402,44.6713897 C1.69953909,42.0605106 3.20469698,39.9470081 5.71329347,38.4980677 C10.0704032,35.981927 14.5073957,33.9102209 19.7418135,34.4730785 C20.0010819,34.5009427 20.2785691,34.3644079 20.862974,34.233446 C20.1230081,31.8315487 19.4054654,29.479807 18.6697038,27.1322449 C18.4188442,26.331148 18.1161309,25.5481629 17.8540596,24.7512457 C16.7244905,21.3197647 17.1154952,20.2010156 20.2995908,18.7478955 C25.2284924,16.4964651 30.228868,14.4038608 35.161974,12.1607896 C40.1749626,9.88149487 45.1417034,7.50746175 50.126663,5.16547252 C53.427079,3.61482765 56.7120791,2.0307457 60.0293126,0.51075149 C60.5856885,0.255793709 61.2611876,0.251614073 62.0782333,0.0941811258 C64.7760256,6.89166209 67.5593064,13.5317101 70.0454797,20.2776422 C72.2667788,26.3004974 74.0928689,32.4682465 76.2370882,38.5203591 C77.0583383,40.840057 76.9728498,43.4509361 78.6924296,45.5087101 C79.3202795,46.2610445 78.2075277,47.7852184 76.6421074,48.3606149 C74.5385302,49.1338475 72.4223398,49.9168326 70.2514929,50.4532192 C67.6055543,51.1080288 64.9329881,51.5733616 62.9625486,53.7077623 C62.7649441,53.9223169 62.2828451,53.8763409 61.6367764,54.0142689" id="Fill-10" fill="#2E86AB" mask="url(#mask-2)"></path>
                </g>
                <path d="M72.1490724,4 C65.552058,7.23248629 59.0592947,10.4205207 52.5595813,13.5946639 C46.0848883,16.7563049 39.0208285,18.6441214 32.8227486,22.5642229 C33.0771215,23.5838383 33.2633836,24.4895457 33.5302666,25.3688597 C33.9069608,26.6135128 34.3170155,27.848442 34.7604305,29.06948 C35.3956676,30.8156061 36.1282059,32.527004 36.7189626,34.2856322 C37.6697333,37.113884 36.7495429,38.140445 33.8638703,37.7112064 C32.4988749,37.5070055 31.0991291,37.4542189 29.7160635,37.4597753 C26.1590134,37.4764448 23.0425982,38.8669557 20.0610146,40.6630901 C17.4741954,42.2216847 15.934058,44.4248317 16.0021688,47.4947908 C16.0772296,50.8578545 17.6006868,53.4263406 20.8630536,54.5445836 C23.5805343,55.4739061 26.393926,56.2184753 29.3018389,55.1391277 C29.9064957,54.91409 30.5598031,54.7557301 31.2019903,54.7085 C34.5505381,54.4640146 36.8343339,52.4011688 38.7706257,50.0160468 C39.7325166,48.832515 40.3524636,47.4392259 42.1441938,47.6531507 C44.1194061,47.8865231 44.108286,49.6215362 44.4933203,51.0092688 C45.5594623,54.8474122 47.3803829,58.360501 48.7717886,62 C52.4483801,60.7067277 55.7885878,59.5315307 59.3845584,58.2660408 C58.6186597,57.4520154 58.0418032,56.865806 57.494137,56.2518142 C51.5615501,49.607645 51.9007139,43.0065385 55.0435394,35.8053314 C55.3326626,35.1441094 55.8010979,34.4537159 56.3765644,34.0453141 C59.1704959,32.0644265 62.1812699,30.8767274 65.7494402,31.271238 C71.2844826,31.8824516 76.8570555,38.7697171 76.8542755,43.9608651 C76.8528855,45.9389744 76.6416031,47.9184729 76.5317919,49.8007329 C80.0652117,48.7116614 83.5763914,47.6295356 87,46.5738031 C86.7748175,40.9381362 75.6950024,9.07585084 72.1490724,4" id="Fill-13" fill="#FFFFFF"></path>
            </g>
        </g>
    </g>
</svg>